<?xml version="1.0" standalone="no"?>
<!DOCTYPE svg PUBLIC "-//W3C//DTD SVG 20010904//EN"
 "http://www.w3.org/TR/2001/REC-SVG-20010904/DTD/svg10.dtd">
<svg version="1.0" xmlns="http://www.w3.org/2000/svg"
 width="1710.000000pt" height="1396.000000pt" viewBox="0 0 1710.000000 1396.000000"
 preserveAspectRatio="xMidYMid meet">

<g transform="translate(0.000000,1396.000000) scale(0.100000,-0.100000)"
fill="#000000" stroke="none">
<path d="M8220 13520 c-136 -8 -214 -15 -435 -39 -102 -12 -392 -61 -535 -90
-389 -82 -800 -215 -1225 -396 -96 -41 -361 -174 -490 -245 -223 -123 -302
-172 -520 -319 -476 -322 -1004 -808 -1350 -1246 -44 -55 -92 -113 -107 -130
-15 -16 -28 -33 -28 -37 0 -3 -29 -45 -63 -91 -35 -47 -99 -139 -142 -204 -43
-65 -90 -136 -105 -158 -109 -163 -338 -599 -439 -840 -35 -83 -69 -163 -77
-180 -13 -31 -81 -220 -127 -355 -89 -261 -185 -657 -232 -955 -36 -229 -65
-495 -65 -594 0 -79 -10 -96 -80 -133 -71 -38 -131 -78 -136 -92 -3 -8 -33
-32 -67 -55 -34 -22 -82 -58 -106 -80 -24 -23 -47 -41 -52 -41 -5 0 -9 -13 -9
-29 0 -29 -3 -30 -77 -48 -61 -14 -119 -18 -266 -18 l-189 0 54 -17 53 -16
-93 -1 c-51 -1 -127 -8 -169 -17 -71 -14 -165 -53 -176 -71 -3 -5 27 -7 66 -5
46 2 109 -4 172 -16 55 -11 154 -24 219 -28 107 -6 117 -8 95 -20 -13 -7 -32
-13 -41 -14 -10 0 -18 -7 -18 -16 0 -12 -7 -14 -28 -10 -217 47 -347 12 -396
-105 -12 -28 -34 -47 -102 -89 -48 -29 -113 -78 -144 -109 -94 -93 -125 -179
-36 -102 73 63 160 120 250 161 166 78 299 95 490 61 65 -11 172 -26 237 -33
66 -7 119 -16 119 -21 0 -5 6 -5 13 1 6 5 71 12 142 15 96 4 148 11 198 27 38
12 72 18 76 14 4 -5 15 -88 24 -184 10 -97 24 -214 32 -260 9 -47 22 -125 31
-175 9 -49 27 -142 41 -205 14 -63 29 -133 34 -155 20 -102 98 -365 143 -485
42 -111 43 -117 16 -125 -12 -4 -356 -8 -765 -9 -409 -1 -747 -5 -750 -8 -4
-4 131 -334 299 -734 168 -400 304 -730 301 -732 -18 -18 -579 -88 -1520 -191
-51 -5 212 -9 739 -10 650 -1 817 -4 813 -13 -3 -7 -145 -344 -315 -749 -170
-405 -313 -746 -317 -758 -6 -20 -3 -21 82 -21 48 -1 801 0 1672 0 1492 1
1585 0 1603 -17 14 -13 21 -14 27 -5 5 9 87 13 302 17 162 3 326 8 365 11 50
4 74 2 79 -6 4 -7 21 -10 44 -7 20 3 28 3 19 1 -28 -8 -22 -18 30 -52 26 -17
65 -49 87 -71 22 -22 43 -40 46 -41 4 0 21 35 40 77 18 43 49 103 69 133 73
109 72 105 60 253 -17 200 -41 275 -130 406 -48 69 -60 102 -53 132 8 34 87
113 163 163 90 60 366 206 388 206 5 0 12 7 16 15 5 13 -29 15 -269 15 -164 0
-276 4 -280 10 -3 5 0 18 6 28 10 15 9 26 -5 52 -9 18 -16 41 -16 50 0 9 -3
20 -7 23 -3 4 -23 51 -43 104 -36 96 -37 97 -76 106 -21 5 -97 7 -168 4 -148
-4 -143 -1 -177 -106 -12 -36 -27 -79 -35 -96 -39 -91 -36 -145 11 -145 32 0
56 -10 49 -21 -3 -5 -81 -9 -174 -9 -93 0 -171 4 -174 9 -7 11 17 21 51 21 43
0 93 64 132 166 19 49 42 107 51 129 9 22 23 56 30 75 7 19 21 54 31 77 11 24
19 46 19 49 0 4 12 34 26 68 14 33 30 70 35 81 4 11 42 108 84 215 84 215 98
242 119 234 13 -5 22 -21 56 -99 5 -11 50 -123 100 -250 51 -126 98 -243 105
-260 7 -16 27 -68 45 -115 77 -207 124 -302 168 -341 39 -35 64 -28 86 24 7
18 24 46 38 62 14 17 31 41 38 54 7 13 56 92 110 175 54 83 120 185 146 226
52 81 123 192 199 309 26 41 48 81 49 90 1 13 -22 15 -189 13 -273 -4 -305
-14 -352 -110 l-28 -57 -3 50 c-1 28 4 84 11 125 l13 75 394 -4 c217 -1 399
-7 404 -11 7 -7 -53 -114 -139 -246 -11 -17 -54 -84 -95 -148 -41 -65 -143
-221 -227 -348 -116 -177 -150 -235 -142 -245 19 -22 223 -12 279 14 25 12 91
38 148 59 116 42 201 93 291 174 l61 55 0 310 c0 360 3 349 -86 360 -34 5 -53
12 -51 19 4 13 426 16 434 2 8 -12 -18 -26 -49 -26 -47 0 -53 -25 -56 -253 -2
-115 -1 -219 2 -232 3 -12 18 -28 34 -34 15 -7 36 -25 46 -42 17 -28 17 -31
-3 -63 -12 -19 -33 -41 -47 -51 -14 -9 -24 -24 -22 -33 3 -15 22 -17 183 -17
176 0 181 -1 235 -27 30 -15 69 -39 87 -54 l32 -26 13 44 c10 32 13 133 13
394 0 332 -1 353 -19 373 -11 12 -32 21 -50 22 -17 0 -40 4 -50 8 -45 17 16
26 187 26 135 1 177 -2 177 -12 0 -6 -17 -15 -37 -19 -75 -13 -73 -5 -73 -308
0 -149 -4 -311 -9 -361 -10 -96 -42 -208 -69 -239 -14 -15 -17 -43 -18 -165
-1 -132 -3 -154 -28 -226 -30 -86 -151 -334 -195 -400 -15 -22 -30 -47 -34
-55 -9 -19 -25 -43 -118 -182 -42 -62 -89 -135 -105 -163 -15 -27 -47 -73 -71
-101 -57 -67 -57 -84 0 -73 23 4 55 12 71 19 16 6 36 8 45 5 18 -5 29 1 51 29
14 17 13 18 -7 12 -15 -5 -28 0 -47 19 -17 17 -20 25 -11 25 8 0 15 -4 15 -10
0 -16 18 -12 40 10 21 21 66 27 72 10 2 -5 34 -1 78 11 153 42 238 45 317 12
34 -14 86 -11 128 7 11 4 28 11 38 14 15 5 17 12 12 36 -5 21 -1 39 10 57 13
19 16 37 11 69 -3 26 -2 44 4 44 6 0 10 -6 10 -13 0 -7 9 -20 20 -30 11 -9 20
-27 20 -39 1 -29 34 -126 48 -140 14 -14 62 5 93 38 12 13 29 24 36 24 24 0
25 27 2 72 -22 42 -49 158 -49 208 0 14 7 36 16 48 15 21 17 22 28 6 15 -19
36 -11 36 14 0 9 5 24 10 32 9 13 14 10 35 -15 41 -48 45 -54 45 -59 0 -3 23
-30 52 -61 l52 -56 19 32 20 31 13 -23 12 -24 7 28 c4 15 2 47 -4 72 -6 24
-11 60 -11 79 0 20 -4 36 -10 36 -5 0 -10 14 -10 31 0 17 4 28 10 24 6 -3 10
-15 10 -26 0 -10 4 -19 9 -19 16 0 24 21 13 32 -15 15 -3 38 18 38 10 0 24
-10 32 -22 17 -26 38 -17 38 18 0 24 1 24 30 -9 17 -19 30 -40 30 -46 0 -7 23
-50 51 -97 45 -75 55 -85 76 -81 13 2 26 1 29 -4 2 -4 12 -5 20 -2 9 3 20 0
25 -8 15 -23 10 85 -7 168 -12 59 -13 82 -4 101 l11 25 20 -22 c28 -29 51 -23
63 17 5 17 13 32 18 32 11 0 28 -45 28 -78 1 -24 2 -25 11 -9 9 16 14 11 38
-40 15 -32 34 -76 41 -98 6 -22 17 -44 24 -50 15 -13 66 -127 66 -148 0 -9 4
-18 10 -22 5 -3 7 -12 3 -20 -3 -9 0 -22 7 -30 7 -8 10 -24 7 -35 -4 -17 0
-20 34 -20 28 0 41 -5 49 -20 8 -15 6 -21 -10 -30 -11 -6 -20 -14 -20 -18 0
-9 113 -2 123 8 9 8 -15 93 -54 190 -39 101 -62 182 -85 310 -7 42 -20 80 -29
86 -21 16 -19 24 7 24 13 0 36 -15 55 -36 17 -20 36 -33 42 -29 17 10 13 91
-5 109 -14 15 -13 16 10 16 19 0 26 -5 26 -19 0 -10 11 -39 24 -64 14 -25 31
-68 39 -94 8 -26 36 -92 61 -146 60 -128 88 -211 90 -267 1 -30 9 -56 26 -77
36 -50 64 -44 143 31 58 53 164 120 213 134 122 35 191 -12 165 -112 -16 -66
-15 -87 7 -79 17 6 127 74 147 91 28 23 38 23 76 -3 21 -15 39 -32 39 -37 0
-6 14 -8 35 -4 27 5 39 2 55 -14 34 -34 44 -21 41 56 -2 61 -30 171 -51 199
-4 6 -11 26 -15 45 -4 19 -12 44 -19 55 -7 11 -20 43 -30 70 -10 28 -27 68
-37 90 -10 22 -24 65 -31 95 -6 30 -15 57 -18 60 -4 3 -16 41 -28 85 -12 44
-29 86 -39 93 -15 11 -16 12 0 12 9 0 23 -13 32 -30 19 -36 27 -37 40 -7 15
33 39 28 43 -10 3 -31 4 -31 30 -17 15 8 32 14 38 14 11 0 34 -42 34 -62 0 -7
9 -30 19 -52 11 -23 32 -76 47 -119 15 -43 31 -80 35 -83 5 -3 9 -18 9 -33 0
-15 4 -31 8 -37 16 -17 84 -244 78 -259 -3 -8 -15 -15 -26 -15 -13 0 -20 -7
-20 -19 0 -27 28 -53 50 -46 22 7 42 -17 38 -47 -2 -15 -11 -24 -25 -26 -13
-2 -23 -7 -23 -12 0 -13 -65 -50 -88 -50 -14 0 -20 -5 -16 -14 3 -9 -5 -21
-20 -31 -34 -23 -35 -49 -2 -41 21 5 139 77 173 106 7 5 17 10 23 10 6 0 21 6
33 14 160 99 253 122 314 78 39 -28 44 -60 21 -127 -19 -51 -24 -100 -10 -93
4 2 29 14 56 26 27 13 60 34 73 48 16 17 31 24 44 21 11 -3 40 1 64 9 41 15
45 14 79 -8 20 -13 36 -31 36 -40 0 -10 5 -18 11 -18 6 0 8 -8 4 -19 -5 -18
-4 -19 37 -6 24 7 72 27 108 44 109 53 268 121 284 121 23 0 27 -16 8 -32 -9
-8 -50 -34 -89 -57 -90 -52 -136 -90 -110 -91 10 0 35 9 55 19 20 11 64 27 97
37 33 9 65 21 72 26 7 6 56 16 110 24 79 11 170 12 478 4 209 -5 457 -14 550
-20 94 -6 214 -13 268 -15 54 -2 103 -7 110 -13 13 -10 166 -31 267 -36 36 -2
92 -11 125 -20 33 -9 92 -19 130 -21 39 -3 99 -8 135 -12 l65 -7 -55 -7 c-30
-3 428 -6 1018 -7 589 -1 1072 0 1072 3 0 3 -142 344 -316 758 -174 413 -319
758 -321 765 -4 9 161 12 803 13 542 1 779 5 719 11 -268 26 -934 103 -1160
134 -347 47 -335 46 -335 55 0 4 137 334 305 733 168 399 305 729 305 733 0 5
-347 8 -771 8 -614 0 -773 3 -776 13 -3 7 15 70 40 140 66 183 141 462 186
692 32 163 50 260 56 305 3 28 15 118 25 200 27 201 38 518 20 540 -7 9 -19
14 -27 11 -15 -6 -28 34 -20 65 6 24 -24 59 -50 59 -37 0 -177 40 -191 54 -13
12 -10 17 24 38 50 32 98 48 141 48 55 0 73 15 73 60 0 48 8 70 24 64 33 -13
39 23 34 206 -3 122 -1 180 6 180 6 0 33 -11 60 -25 27 -14 56 -25 64 -25 8 0
66 -54 129 -119 118 -123 160 -150 186 -119 11 14 127 43 155 39 60 -8 225 15
280 39 64 28 71 42 79 160 3 47 12 97 19 112 33 65 2 153 -76 219 -29 25 -60
62 -70 85 -27 62 -150 203 -313 360 -88 85 -158 162 -177 195 -18 30 -44 70
-59 89 -15 19 -34 51 -44 70 -9 19 -38 64 -64 100 -25 36 -74 106 -108 155
-102 151 -122 179 -153 215 l-29 34 5 -34 c2 -19 15 -49 28 -67 27 -36 31 -58
9 -49 -23 9 -185 -58 -185 -76 0 -9 -71 -29 -82 -22 -4 3 -8 -28 -8 -68 0 -62
5 -82 30 -132 43 -83 64 -106 122 -138 40 -22 64 -28 110 -28 33 0 68 5 79 11
25 13 92 86 100 108 18 52 32 81 39 81 15 0 63 -65 91 -124 15 -32 37 -65 48
-73 28 -19 26 -39 -4 -59 -14 -9 -25 -20 -25 -25 0 -13 34 -11 49 4 10 10 15
8 27 -8 8 -11 17 -30 20 -42 3 -11 14 -23 25 -26 13 -4 19 -14 19 -35 0 -17
-4 -33 -8 -36 -5 -3 -21 -43 -36 -90 -16 -47 -37 -92 -47 -102 -18 -16 -20
-16 -44 6 -13 12 -34 28 -47 34 -13 7 -25 25 -29 46 -4 19 -15 49 -23 65 -22
41 -20 82 4 102 11 10 20 23 20 31 0 7 7 15 15 18 8 4 15 11 15 16 0 10 -22 8
-82 -7 -20 -5 -25 -1 -36 29 -21 58 -42 46 -42 -23 0 -32 -7 -76 -16 -97 -15
-36 -15 -38 5 -53 11 -9 24 -28 30 -42 8 -22 6 -30 -13 -48 -12 -11 -31 -21
-41 -21 -16 0 -17 6 -12 50 6 48 5 50 -14 40 -24 -13 -33 -8 -48 28 -10 23
-18 28 -48 29 -24 1 -41 -5 -49 -15 -11 -15 -13 -14 -19 11 -5 17 -3 33 4 40
25 25 2 122 -36 150 -18 14 -27 15 -43 7 -53 -28 -133 83 -113 158 5 22 -2 26
-37 23 -9 -1 -25 9 -36 21 -33 37 -104 143 -104 155 0 7 -13 21 -28 32 -16 11
-48 48 -71 82 -36 52 -41 66 -33 84 12 26 79 68 87 55 3 -5 12 -7 20 -4 8 4
12 10 10 15 -18 29 83 124 167 157 21 8 40 23 43 33 3 10 19 21 36 24 23 5 33
2 49 -17 11 -12 19 -26 20 -31 0 -13 72 -117 81 -117 4 0 15 -7 23 -16 28 -27
17 1 -22 62 -49 76 -174 201 -218 220 -34 14 -56 13 -126 -8 -43 -13 -45 -16
-21 -33 15 -11 12 -15 -25 -39 -53 -33 -70 -33 -78 1 -6 21 -1 31 25 52 25 21
29 29 19 39 -6 6 -18 12 -25 12 -7 0 -17 9 -23 20 -9 16 -8 22 6 27 14 5 33
-3 96 -41 30 -18 39 5 18 49 -11 22 -19 43 -20 47 -1 18 -208 430 -251 498 -9
14 -49 81 -89 150 -82 140 -248 391 -324 490 -91 118 -231 295 -241 305 -6 6
-38 44 -71 85 -130 164 -595 612 -814 785 -41 32 -77 61 -80 64 -3 4 -30 24
-60 47 -203 151 -294 210 -331 216 -21 3 -25 -3 -40 -60 -23 -90 -36 -114 -57
-110 -23 4 -62 115 -66 190 -5 79 -17 92 -78 84 l-48 -7 0 41 c0 34 -5 43 -30
59 -17 10 -49 24 -73 31 -23 8 -45 19 -49 24 -5 7 -16 7 -36 0 -24 -9 -37 -8
-70 7 -49 23 -60 37 -36 46 10 4 19 2 22 -5 2 -7 11 -12 20 -12 14 1 13 4 -5
19 -13 11 -23 24 -23 30 0 6 -4 11 -10 11 -5 0 -37 18 -71 40 -33 22 -89 53
-123 69 -85 41 -217 101 -221 101 -3 0 -28 11 -57 24 -209 95 -658 243 -928
306 -341 80 -679 134 -1000 160 -176 14 -667 20 -840 10z m394 -366 c64 -138
48 -126 177 -138 94 -9 114 -14 114 -28 0 -8 -34 -46 -75 -83 -41 -37 -79 -73
-83 -81 -5 -8 1 -58 12 -116 12 -55 21 -107 21 -114 0 -23 -27 -16 -97 27
-116 72 -114 71 -196 27 -126 -67 -137 -72 -143 -65 -4 4 3 56 16 115 18 86
20 113 11 130 -6 12 -44 49 -84 83 -39 34 -75 68 -80 75 -8 15 14 20 130 28
88 7 119 18 128 46 19 59 87 191 97 188 6 -2 30 -44 52 -94z m-2024 -341 c40
-43 81 -81 92 -85 11 -5 59 3 115 17 52 14 101 25 109 25 28 0 17 -27 -69
-183 -21 -38 -21 -38 -2 -74 11 -21 39 -67 63 -103 39 -59 41 -66 26 -77 -9
-7 -20 -11 -23 -9 -4 3 -51 12 -106 21 l-99 17 -31 -33 c-16 -19 -51 -58 -77
-88 -27 -31 -52 -52 -60 -49 -9 4 -18 41 -27 104 -7 54 -17 106 -22 115 -11
21 -67 50 -139 72 -30 10 -61 21 -69 26 -22 14 -6 36 35 50 22 7 68 30 104 50
l65 37 8 109 c8 116 11 135 25 135 5 0 41 -35 82 -77z m4036 63 c3 -8 9 -63
12 -123 l7 -108 79 -42 c43 -24 88 -46 100 -49 12 -4 24 -12 28 -18 8 -12 -9
-36 -26 -36 -6 0 -50 -17 -98 -37 l-87 -37 -10 -46 c-6 -26 -13 -77 -17 -114
-8 -77 -25 -94 -57 -55 -73 91 -132 149 -151 149 -12 -1 -60 -9 -107 -18 -132
-27 -133 -24 -53 107 59 96 60 103 23 165 -37 62 -69 128 -69 142 0 19 11 18
128 -11 55 -14 107 -23 114 -20 7 3 47 41 88 85 41 44 78 80 83 80 4 0 10 -6
13 -14z m-1566 -571 c279 -29 720 -112 900 -170 25 -8 104 -33 175 -56 72 -23
177 -59 235 -81 94 -35 137 -53 260 -106 121 -51 385 -188 527 -273 654 -391
1212 -918 1636 -1547 38 -56 67 -105 64 -109 -4 -3 -26 -1 -49 5 -24 6 -79 10
-123 9 -73 -2 -80 -4 -80 -22 0 -18 -9 -21 -90 -26 -49 -4 -149 -7 -220 -8
-145 -1 -171 7 -177 57 -2 18 -12 31 -30 40 -17 8 -28 21 -28 33 0 25 -17 59
-30 59 -19 0 -34 -108 -23 -168 12 -62 11 -68 -9 -56 -7 4 -19 9 -28 10 -61 8
-116 25 -148 47 -41 28 -120 57 -155 57 -92 -1 -88 -40 10 -95 75 -42 143 -97
143 -115 0 -6 -7 -13 -15 -16 -8 -3 -17 -14 -20 -24 -3 -10 -18 -20 -33 -23
-91 -18 -137 -34 -137 -47 0 -10 12 -16 33 -18 37 -4 40 -12 12 -37 -12 -11
-19 -28 -18 -44 4 -34 -24 -38 -93 -16 -27 9 -56 14 -64 11 -23 -8 -18 -42 10
-64 14 -11 25 -24 24 -28 0 -13 -190 -104 -215 -104 -22 0 -74 -42 -74 -59 0
-6 9 -16 20 -23 23 -15 26 -28 6 -28 -8 0 -37 -15 -65 -34 -77 -52 -85 -53
-118 -9 -29 39 -77 84 -124 118 -23 16 -99 148 -99 170 0 4 -9 18 -20 32 -11
14 -20 29 -20 34 0 4 9 11 20 14 13 4 20 15 20 31 0 23 15 34 22 16 5 -13 97
-76 146 -101 27 -14 57 -21 80 -19 31 2 40 9 52 35 8 18 23 35 33 39 9 3 29
16 45 28 15 13 36 25 47 27 11 2 24 14 30 27 7 17 18 22 46 22 47 0 55 12 64
86 8 71 9 73 56 105 20 13 59 45 88 71 42 38 53 56 63 98 7 29 18 54 25 57 7
3 62 -7 122 -23 109 -27 141 -27 141 1 0 18 -88 84 -112 85 -27 0 -31 16 -33
139 -5 231 -103 404 -310 547 -50 34 -165 73 -254 86 -118 16 -273 -10 -378
-65 -222 -117 -265 -163 -298 -319 -7 -37 14 -119 37 -141 18 -18 17 -19 -14
-57 -33 -40 -52 -49 -63 -30 -12 19 -117 81 -168 100 -76 27 -129 33 -178 20
-24 -7 -80 -14 -124 -15 -92 -3 -210 -30 -351 -81 -55 -20 -133 -47 -174 -61
-41 -14 -83 -34 -93 -44 -10 -11 -21 -19 -25 -19 -29 0 -194 -22 -222 -30 -19
-5 -57 -14 -85 -21 -79 -18 -420 -125 -480 -149 -11 -5 -38 -14 -60 -21 -66
-19 -267 -101 -317 -128 -63 -35 -98 -67 -98 -90 0 -18 19 -32 129 -96 9 -5
46 -33 82 -62 73 -58 119 -117 119 -153 0 -69 99 -183 210 -243 95 -51 198
-69 357 -63 491 21 454 23 603 -37 41 -16 95 -37 120 -47 61 -22 217 -102 284
-145 30 -19 57 -35 60 -35 24 0 256 -179 265 -205 2 -5 10 -24 18 -41 8 -18
13 -51 11 -74 l-3 -42 -38 31 c-53 41 -128 61 -234 61 -119 0 -203 -27 -293
-95 l-35 -26 -12 30 c-17 41 -54 50 -89 22 -24 -19 -38 -20 -188 -19 -161 1
-194 -3 -366 -46 l-55 -14 70 -1 c39 -1 103 6 144 14 55 12 82 13 104 5 16 -5
43 -10 59 -10 16 0 38 -4 48 -10 11 -6 36 -6 64 -1 28 5 49 5 52 -1 3 -5 -3
-28 -14 -51 -19 -39 -25 -43 -94 -65 -72 -22 -76 -25 -112 -82 -21 -33 -54
-73 -72 -90 -46 -40 -129 -63 -202 -56 -31 3 -109 9 -172 15 -63 5 -187 16
-275 25 -240 24 -228 24 -240 -2 -5 -12 -17 -24 -25 -27 -21 -6 -438 -8 -540
-2 -77 4 -115 12 -175 37 -11 5 -90 34 -175 65 -85 31 -168 62 -185 69 -128
55 -298 113 -425 143 -95 23 -441 26 -535 5 -207 -47 -353 -95 -425 -141 -14
-9 -52 -30 -85 -46 -33 -16 -62 -32 -65 -35 -3 -4 -25 -20 -50 -36 -25 -17
-67 -46 -95 -65 -42 -30 -67 -38 -153 -53 -115 -19 -184 -43 -253 -87 l-46
-29 -94 12 c-158 22 -250 16 -359 -21 -52 -18 -109 -40 -127 -49 -240 -121
-345 -171 -433 -207 -58 -24 -118 -51 -135 -59 -16 -9 -50 -16 -75 -16 -59 0
-451 67 -463 79 -18 18 41 419 93 631 4 19 13 55 18 80 78 338 221 729 393
1072 289 578 702 1115 1179 1534 268 234 472 383 797 581 35 21 334 183 338
183 2 0 41 17 87 39 105 49 178 80 298 126 52 20 104 40 115 45 19 8 149 50
306 99 321 100 825 186 1199 205 142 8 594 -4 740 -19z m3030 -485 c47 -33 94
-63 105 -66 12 -3 59 15 120 45 55 27 104 47 108 44 11 -6 6 -32 -22 -137 -11
-44 -21 -87 -21 -96 0 -9 34 -53 75 -97 41 -45 75 -85 75 -91 0 -5 -52 -12
-116 -14 -79 -4 -120 -10 -129 -19 -8 -8 -33 -50 -56 -94 -39 -74 -55 -94 -70
-95 -5 0 -22 37 -59 135 -30 78 -35 83 -79 90 -20 3 -61 10 -91 16 -30 6 -65
13 -77 15 -13 2 -23 10 -22 17 0 6 40 43 90 81 101 78 97 66 75 216 -14 90
-13 110 2 110 4 0 45 -27 92 -60z m-6964 -7 c-4 -32 -9 -89 -12 -128 l-5 -70
90 -65 c50 -36 90 -71 91 -77 0 -7 -10 -15 -22 -17 -29 -6 -78 -15 -147 -26
-67 -12 -76 -19 -97 -83 -16 -50 -38 -107 -53 -136 -9 -19 -22 -19 -33 -1 -4
8 -30 53 -56 100 -55 97 -58 98 -209 99 -60 1 -83 5 -83 14 1 6 35 48 76 91
74 77 76 80 70 120 -3 23 -13 66 -22 96 -23 77 -27 107 -17 113 5 3 53 -17
108 -44 55 -27 105 -49 110 -49 11 0 142 84 165 106 8 8 23 14 34 14 17 0 18
-5 12 -57z m6166 -945 c10 -17 13 -78 12 -233 -2 -175 -5 -224 -23 -294 -11
-47 -26 -88 -32 -92 -17 -10 -88 0 -192 28 -10 2 -25 21 -35 41 -23 49 -64 54
-127 18 -24 -14 -53 -26 -65 -26 -27 0 -80 27 -80 42 0 47 233 343 334 424 47
37 173 113 188 114 4 0 13 -10 20 -22z m-7528 -465 c2 -10 12 -60 22 -111 9
-52 23 -99 30 -106 6 -7 60 -28 118 -46 108 -34 126 -49 84 -71 -96 -49 -179
-105 -183 -123 -3 -12 -6 -66 -8 -120 -1 -55 -6 -101 -12 -103 -5 -1 -46 31
-90 72 -44 41 -89 74 -100 75 -11 0 -64 -15 -117 -34 -53 -18 -102 -30 -108
-26 -9 6 -7 17 8 46 21 40 72 167 72 179 0 4 -29 48 -65 96 -83 114 -83 124
-7 116 31 -3 86 -9 122 -13 l66 -6 52 71 c29 39 52 74 52 78 0 12 33 43 46 43
7 0 15 -8 18 -17z m9645 -20 c17 -21 51 -64 76 -95 51 -65 46 -63 178 -47 125
15 127 13 71 -68 -26 -38 -58 -82 -71 -99 -25 -34 -29 -59 -11 -70 8 -5 6 -11
-6 -19 -17 -13 -64 -3 -184 36 -24 8 -37 8 -45 0 -11 -11 -12 -9 51 -92 38
-50 28 -62 -27 -32 -20 11 -58 26 -86 33 -27 7 -59 21 -70 30 -11 9 -61 41
-112 71 -51 30 -93 60 -93 66 0 7 12 16 28 19 15 4 66 20 113 36 97 33 90 23
119 168 6 30 13 65 16 78 6 31 18 28 53 -15z m-2491 -107 c-29 -38 -33 -41
-36 -23 -3 14 6 30 23 44 42 37 48 27 13 -21z m-38 -102 c0 -34 20 -62 40 -57
23 6 35 -14 20 -32 -27 -33 -90 -4 -90 40 0 40 12 85 21 79 5 -3 9 -16 9 -30z
m65 6 c-3 -5 -10 -10 -16 -10 -5 0 -9 5 -9 10 0 6 7 10 16 10 8 0 12 -4 9 -10z
m-121 -123 c15 -22 24 -27 43 -22 31 7 29 -4 -7 -45 -29 -35 -29 -35 -30 -10
0 14 -9 43 -20 65 -11 22 -20 46 -19 55 0 13 1 13 7 0 4 -8 16 -28 26 -43z
m296 -43 c0 -13 -6 -24 -12 -24 -29 -1 -105 -91 -93 -110 10 -16 29 -12 43 10
16 27 34 25 30 -2 -2 -18 -11 -24 -38 -28 -27 -4 -35 -10 -35 -25 0 -25 49
-33 73 -12 24 20 82 47 82 38 0 -26 160 -45 175 -21 3 6 15 10 27 10 16 0 19
-4 13 -22 -3 -13 -10 -36 -13 -51 -9 -35 -18 -36 -52 -4 -36 35 -78 45 -87 22
-4 -13 2 -24 19 -37 23 -16 25 -21 15 -43 -14 -30 -25 -31 -66 -8 -25 15 -32
16 -43 4 -11 -11 -9 -16 10 -28 26 -18 29 -43 5 -43 -10 0 -33 -18 -53 -41
l-35 -40 -79 43 c-81 44 -156 120 -156 157 0 36 148 221 177 221 6 0 26 16 44
35 35 37 49 37 49 -1z m30 -103 c6 -22 5 -31 -3 -31 -18 0 -37 46 -24 59 13
13 16 11 27 -28z m3318 -278 c2 -7 -2 -13 -9 -13 -13 0 -84 -47 -159 -105 -25
-20 -57 -43 -72 -53 -16 -9 -28 -20 -28 -24 0 -5 -6 -8 -12 -8 -7 0 10 21 38
48 176 166 186 173 218 169 11 -1 21 -8 24 -14z m-2604 1 c24 -9 19 -24 -6
-24 -13 0 -53 -11 -90 -24 -38 -13 -68 -21 -68 -16 0 8 66 55 90 63 21 8 56 8
74 1z m269 -169 c35 -15 121 -94 112 -103 -3 -3 -23 1 -44 8 -31 10 -50 10
-84 2 -55 -14 -138 -1 -212 33 -27 13 -66 30 -85 38 -33 15 -34 16 -10 22 113
27 259 27 323 0z m1957 -155 c0 -39 -42 -53 -72 -23 -18 19 -18 21 -3 37 9 9
30 16 46 16 26 0 29 -4 29 -30z m40 -72 c0 -16 -3 -19 -11 -11 -6 6 -8 16 -5
22 11 17 16 13 16 -11z m-3985 -52 c12 -59 42 -98 100 -132 14 -7 20 -27 26
-75 3 -35 10 -81 14 -101 10 -51 -2 -49 -83 16 -78 62 -243 160 -362 216 -94
43 -120 70 -71 70 17 0 40 5 53 10 35 16 249 59 282 57 28 -2 30 -6 41 -61z
m1995 50 c0 -7 -10 -21 -22 -30 -22 -16 -21 -17 39 -12 40 2 65 0 71 -7 9 -12
34 -158 36 -212 1 -28 -2 -30 -44 -36 -51 -7 -44 -9 54 -14 87 -6 106 -12 106
-35 0 -27 -13 -32 -107 -41 -46 -4 -89 -12 -96 -17 -7 -5 -70 -12 -142 -15
-143 -5 -264 -30 -352 -73 -28 -14 -62 -24 -75 -22 -21 3 -24 11 -35 88 -6 47
-12 99 -12 116 l-1 31 101 18 c83 14 107 23 134 46 18 16 42 29 53 29 22 0
152 67 152 78 0 4 14 13 31 21 17 7 33 21 36 30 19 52 73 94 73 57z m2040 -68
c0 -4 -4 -8 -10 -8 -5 0 -10 7 -10 15 0 8 -4 15 -10 15 -5 0 -10 5 -10 12 0 6
9 3 20 -7 11 -10 20 -22 20 -27z m621 16 c63 -31 129 -123 129 -180 0 -46 -7
-40 -23 18 -15 57 -85 122 -139 131 -35 5 -53 -6 -25 -16 6 -2 -11 -7 -40 -11
-29 -4 -57 -5 -63 -1 -15 10 19 34 48 35 26 0 29 15 5 25 -17 7 -16 8 2 15 26
11 62 5 106 -16z m-687 -51 c3 -16 5 -54 5 -85 0 -32 2 -62 6 -68 8 -13 48
-13 62 1 33 33 123 -76 123 -148 0 -24 5 -33 16 -33 40 0 99 -73 163 -200 6
-14 23 -43 36 -65 40 -67 64 -125 59 -140 -3 -8 -19 -15 -36 -17 -28 -3 -32
-8 -45 -57 -7 -29 -12 -59 -12 -65 1 -6 -1 -19 -6 -30 -11 -25 9 -36 71 -36
56 0 73 -15 54 -51 -13 -24 -71 -25 -215 -4 -57 9 -107 15 -112 14 -4 -2 -27
3 -51 10 -23 6 -47 9 -53 6 -5 -4 -21 0 -34 9 -13 9 -31 16 -40 16 -8 0 -23 4
-33 9 -9 5 -28 13 -42 19 -14 6 -69 31 -123 56 -54 25 -104 46 -110 46 -7 0
-17 4 -23 8 -5 5 -21 13 -36 20 -26 11 -27 10 -19 -11 4 -12 6 -38 4 -59 -5
-36 -28 -51 -61 -40 -17 5 -15 88 3 116 14 22 13 23 -23 42 -38 20 -55 60 -32
74 7 4 40 -3 73 -16 74 -29 72 -29 53 -2 -10 14 -16 44 -16 75 0 39 -4 53 -14
53 -8 0 -16 6 -19 14 -6 15 9 91 23 115 8 13 10 11 11 -9 1 -14 1 -47 0 -74
-2 -46 -1 -48 21 -42 13 3 56 6 96 6 l72 0 0 59 c0 32 -3 73 -6 90 -6 30 -8
31 -63 31 -33 0 -65 6 -76 14 -19 13 -18 15 10 56 30 43 104 110 122 110 17 0
23 -27 23 -101 l0 -70 88 3 87 3 2 65 c3 110 4 109 -80 112 -66 3 -72 5 -75
26 -4 24 -30 30 -50 10 -9 -9 -12 -9 -12 1 0 16 57 68 81 74 23 6 25 -15 4
-37 -23 -23 -18 -28 13 -12 39 20 88 76 96 109 3 15 13 27 20 27 8 0 17 -12
20 -27z m135 -51 c17 -37 13 -47 -9 -19 -11 14 -20 29 -20 33 0 4 -8 16 -17
28 -18 20 -18 20 9 0 15 -10 31 -29 37 -42z m56 -91 c-7 -6 -35 27 -35 41 0 7
9 2 20 -12 10 -14 17 -26 15 -29z m494 3 c20 -18 9 -27 -20 -15 -13 5 -33 12
-44 16 -16 5 -17 8 -5 15 17 11 49 4 69 -16z m-449 -61 c0 -7 4 -13 8 -13 5 0
15 -12 23 -27 8 -16 16 -30 19 -33 15 -13 140 -209 140 -218 0 -6 9 -13 19
-17 10 -3 21 -13 25 -23 3 -9 11 -24 18 -34 9 -13 9 -20 -1 -32 -8 -9 -19 -16
-25 -16 -15 0 -46 62 -46 91 0 11 -5 25 -10 32 -17 20 -79 115 -99 151 -11 18
-25 44 -33 57 -7 13 -16 26 -19 29 -12 11 -59 85 -59 94 0 5 9 1 20 -9 11 -10
20 -24 20 -32z m570 5 c0 -15 -93 -98 -109 -98 -6 0 -11 5 -11 10 0 6 -7 10
-16 8 -10 -2 -19 3 -22 11 -4 11 2 13 26 8 17 -4 34 -2 37 3 3 6 1 10 -4 10
-6 0 -11 7 -11 15 0 8 8 15 19 15 10 0 24 7 31 15 15 18 60 20 60 3z m-1103
-4 c-3 -3 -12 -4 -19 -1 -8 3 -5 6 6 6 11 1 17 -2 13 -5z m853 -103 c0 -22
-70 21 -97 59 -7 10 -10 26 -6 36 5 14 14 8 55 -34 26 -28 48 -55 48 -61z
m-880 84 c0 -2 -10 -10 -22 -16 -21 -11 -22 -11 -9 4 13 16 31 23 31 12z m-46
-50 c-4 -8 -8 -15 -10 -15 -2 0 -4 7 -4 15 0 8 4 15 10 15 5 0 7 -7 4 -15z
m-38 -51 c-9 -8 -16 -11 -16 -4 0 15 24 40 28 29 2 -5 -4 -16 -12 -25z m-26
-45 c-7 -11 -14 -19 -16 -16 -7 7 7 37 17 37 6 0 5 -9 -1 -21z m-25 -51 c-4
-13 -13 -45 -20 -73 -12 -44 -13 -46 -14 -18 -1 18 3 42 8 55 5 13 12 31 15
41 3 9 8 17 12 17 3 0 3 -10 -1 -22z m-35 -153 c0 -14 -4 -25 -10 -25 -5 0
-10 11 -10 25 0 14 5 25 10 25 6 0 10 -11 10 -25z m-10611 -62 c86 -137 69
-125 185 -123 55 1 109 2 119 1 26 -2 21 -29 -11 -59 -46 -44 -112 -129 -112
-143 0 -8 16 -58 35 -113 19 -54 35 -102 35 -107 0 -15 -22 -10 -128 30 l-104
40 -56 -39 c-32 -22 -73 -53 -92 -70 -58 -50 -60 -45 -54 93 l6 122 -96 64
c-96 64 -113 78 -103 87 3 3 47 16 98 28 148 37 141 31 168 132 31 115 38 134
51 134 6 0 32 -35 59 -77z m7260 50 c9 -20 10 -28 1 -31 -6 -2 -28 -21 -48
-41 -86 -84 -177 -161 -191 -161 -21 0 -35 11 -48 35 -9 16 -7 24 10 41 12 12
49 49 81 83 32 33 64 61 70 61 6 0 17 9 24 20 9 14 23 20 50 20 32 0 41 -4 51
-27z m5005 -15 c-6 -9 -132 -449 -145 -503 -5 -22 -13 -49 -18 -60 -5 -11 -12
-31 -14 -45 -12 -62 -39 -146 -51 -158 -11 -12 -24 -8 -76 19 -74 40 -92 64
-54 73 14 4 44 19 67 33 39 24 40 26 19 34 -14 5 -20 14 -16 24 4 10 0 15 -15
15 -12 0 -21 -4 -21 -10 0 -11 -89 -13 -107 -2 -18 11 -24 93 -10 132 10 28
17 34 35 33 13 -2 50 11 83 29 l59 32 18 -24 c9 -14 19 -36 22 -50 l6 -25 5
27 c14 67 -60 166 -141 188 -112 30 -238 -57 -256 -176 -5 -38 -2 -50 26 -94
51 -79 108 -113 205 -123 29 -3 29 -3 -8 -11 -110 -24 -228 79 -251 220 -6 34
-2 53 22 106 39 86 99 138 158 138 85 0 169 -27 211 -66 30 -28 63 -89 63
-115 0 -16 5 -29 10 -29 6 0 10 12 10 27 0 14 6 34 13 42 15 18 55 121 86 219
29 91 52 136 62 121 4 -7 6 -16 3 -21z m-514 -18 c0 -5 -2 -10 -4 -10 -3 0 -8
5 -11 10 -3 6 -1 10 4 10 6 0 11 -4 11 -10z m630 -89 c0 -10 8 -26 19 -35 10
-9 21 -30 25 -47 8 -40 34 -49 56 -19 16 21 20 22 34 10 26 -20 126 -175 126
-193 0 -9 11 -28 25 -43 27 -30 25 -44 -8 -44 -29 0 -43 10 -51 37 -5 15 -18
24 -41 29 -38 7 -66 -5 -112 -48 -41 -39 -56 -30 -51 35 3 47 1 51 -27 66 -19
11 -40 37 -57 71 -14 30 -30 60 -36 66 -24 27 -32 53 -22 79 5 14 10 34 10 44
0 10 7 35 15 54 l15 36 40 -40 c22 -22 40 -48 40 -58z m-4862 -78 c-4 -100
-10 -140 -27 -185 -12 -32 -27 -58 -32 -58 -5 0 -9 -7 -9 -15 0 -9 -8 -28 -17
-43 -41 -64 -69 -93 -156 -162 -110 -88 -161 -154 -247 -323 -40 -78 -88 -165
-106 -193 -35 -53 -117 -120 -134 -109 -21 13 -8 36 44 74 68 51 79 66 159
231 107 219 156 284 283 373 73 51 149 131 168 178 17 42 33 144 41 269 7 102
12 117 27 102 7 -7 9 -59 6 -139z m-3718 73 c120 -22 204 -51 282 -97 44 -27
68 -48 72 -65 4 -13 11 -24 17 -24 5 0 15 -13 20 -29 13 -37 39 -49 46 -21 6
22 25 28 22 8 -4 -31 3 -46 22 -51 18 -5 21 -11 17 -39 -3 -18 -8 -41 -13 -50
-6 -15 -2 -18 20 -18 37 0 58 24 53 61 -5 35 14 48 63 41 l29 -4 -4 -227 c-2
-124 -6 -237 -8 -250 -4 -29 -46 -49 -54 -26 -4 8 -11 12 -16 9 -7 -4 -6 -9 1
-14 8 -4 0 -19 -24 -42 -37 -36 -37 -36 -170 -52 -11 -1 -28 -6 -37 -9 -56
-21 -58 -17 -32 64 16 49 16 51 -10 117 -14 37 -26 74 -26 82 0 8 -10 35 -21
60 l-21 45 -14 -30 c-11 -26 -13 -27 -14 -8 0 30 -18 39 -22 11 -2 -12 -9 -23
-15 -26 -18 -5 -16 36 2 54 25 25 12 86 -14 70 -6 -4 -9 -11 -6 -16 3 -4 -5
-29 -16 -56 -18 -39 -19 -51 -9 -67 11 -19 10 -19 -20 -14 -30 6 -33 4 -47
-33 -14 -36 -43 -63 -43 -40 0 6 -7 10 -15 10 -8 0 -15 -7 -15 -15 0 -8 5 -15
10 -15 13 0 13 -47 -1 -55 -6 -4 -16 1 -23 11 -7 9 -18 14 -24 10 -19 -12 -14
-24 16 -34 l27 -9 -38 -11 c-21 -6 -49 -22 -62 -36 -13 -14 -32 -26 -42 -26
-10 0 -29 -16 -43 -35 -20 -27 -34 -36 -70 -41 -25 -4 -70 -20 -100 -36 -30
-17 -73 -40 -95 -51 -22 -12 -44 -27 -50 -34 -5 -6 -32 -25 -58 -41 -99 -62
-215 -169 -244 -226 -9 -16 -22 -36 -29 -44 -15 -14 -67 -105 -117 -203 -23
-47 -37 -64 -52 -64 -26 0 -31 36 -11 80 9 18 16 37 16 41 0 5 16 46 36 93 30
68 35 88 25 103 -6 10 -11 40 -11 67 0 42 -5 54 -31 80 -26 26 -38 31 -80 31
-40 0 -53 -5 -72 -26 -12 -14 -35 -31 -52 -38 -16 -7 -53 -36 -80 -63 -28 -28
-61 -53 -73 -57 -12 -4 -27 -16 -32 -26 -6 -11 -17 -17 -25 -14 -21 9 -19 35
4 41 11 3 21 13 24 24 3 11 14 19 25 19 12 0 24 11 32 30 7 16 25 35 41 42 16
7 29 17 29 23 0 16 73 76 86 71 7 -3 32 12 56 33 24 21 51 40 61 44 9 3 17 15
17 26 0 11 5 23 10 26 6 3 10 -1 10 -9 0 -10 8 -16 23 -15 12 0 16 3 10 6 -7
2 -13 9 -13 15 0 6 7 7 15 4 14 -5 143 48 155 64 3 4 20 15 38 24 18 9 38 25
45 36 17 29 33 25 43 -11 12 -40 27 -41 38 -2 6 18 20 36 34 42 16 8 22 17 18
28 -8 19 30 63 54 63 23 0 73 26 94 49 11 12 38 22 69 26 72 9 87 14 87 31 0
8 4 14 10 14 14 0 60 49 60 64 0 16 35 33 120 57 39 12 66 15 68 9 2 -5 11 -3
19 6 16 16 58 16 96 -1 13 -5 16 -4 11 9 -4 10 -18 16 -39 16 -36 0 -48 9 -37
27 5 7 40 11 95 10 86 -2 87 -2 87 -27 0 -36 14 -55 27 -38 6 7 14 24 18 37
l7 24 19 -24 19 -24 0 37 c0 21 -8 62 -17 93 -13 41 -22 55 -36 55 -11 0 -28
11 -39 25 -11 14 -25 25 -32 25 -7 0 -22 9 -34 20 -25 24 -127 70 -153 70 -10
0 -63 -44 -117 -97 -100 -99 -161 -152 -216 -187 -44 -28 -119 -66 -130 -66
-5 0 -17 -6 -25 -14 -18 -15 -139 -57 -250 -87 -40 -11 -103 -33 -139 -49 -35
-17 -72 -30 -80 -30 -19 0 -257 -124 -278 -145 -9 -8 -19 -15 -23 -15 -8 0
-140 -106 -172 -139 -60 -59 -89 -92 -119 -136 -19 -27 -51 -68 -70 -91 -19
-22 -47 -54 -62 -71 -14 -17 -43 -55 -65 -85 -41 -59 -160 -208 -237 -298 -26
-30 -68 -90 -94 -134 -45 -76 -141 -176 -169 -176 -19 0 -17 62 8 231 12 79
25 169 29 199 19 146 157 471 274 645 66 99 72 107 161 214 146 174 280 267
450 311 137 36 161 47 269 125 57 41 108 75 112 75 4 0 15 6 23 14 25 21 205
91 311 121 193 54 448 67 640 31z m4563 -33 c-24 -2 -62 -2 -85 0 -24 2 -5 4
42 4 47 0 66 -2 43 -4z m-1545 -58 c24 -7 30 -30 8 -38 -13 -5 -98 -123 -125
-173 -15 -29 -34 -29 -103 0 l-37 16 19 22 c77 93 120 149 120 157 0 12 58 31
80 26 8 -2 25 -6 38 -10z m4745 -16 c-11 -4 -24 -16 -28 -26 -7 -16 -8 -15
-14 7 -6 21 -3 26 18 31 33 7 51 -2 24 -12z m-7210 -76 c-7 -2 -19 -2 -25 0
-7 3 -2 5 12 5 14 0 19 -2 13 -5z m72 -23 c11 -18 -26 -23 -43 -6 -15 15 -14
16 10 16 15 0 30 -5 33 -10z m6604 -47 c36 -18 98 -55 136 -83 39 -27 77 -49
86 -50 21 0 26 -14 35 -89 8 -74 -5 -79 -63 -26 -21 20 -63 51 -94 70 -56 35
-57 35 -95 20 -22 -9 -50 -21 -64 -29 -36 -18 -109 -40 -115 -34 -3 3 11 54
30 112 20 59 34 114 31 123 -16 40 14 37 113 -14z m-6691 -10 c6 -19 -25 -16
-32 3 -4 11 -1 14 11 12 9 -2 18 -9 21 -15z m6226 -15 c32 -152 62 -421 77
-692 16 -279 -8 -710 -52 -971 -6 -33 -14 -87 -19 -120 -4 -33 -13 -80 -18
-105 -6 -25 -16 -72 -23 -105 -25 -123 -77 -318 -128 -475 -71 -220 -84 -250
-105 -250 -7 0 -33 11 -57 24 -24 13 -82 44 -129 68 -47 23 -139 73 -204 111
-66 37 -121 67 -123 67 -2 0 -28 15 -56 33 -54 35 -109 51 -207 62 -30 3 -83
11 -117 17 -72 13 -82 27 -59 83 24 58 44 168 61 345 28 294 45 445 55 481 5
19 34 77 65 129 78 135 115 212 122 256 8 50 67 129 327 438 23 27 45 56 50
65 5 9 26 34 47 56 20 22 79 92 129 155 109 137 156 194 190 229 14 15 37 41
51 58 49 59 115 80 123 41z m661 -8 c3 -5 17 -10 30 -10 29 0 44 -36 24 -56
-12 -11 -23 -7 -72 22 -31 20 -55 40 -51 45 7 12 61 12 69 -1z m-1492 -13 c3
-8 2 -18 -1 -24 -11 -15 -141 -89 -202 -114 -30 -12 -72 -35 -92 -50 -20 -16
-41 -29 -46 -29 -15 0 -53 -50 -87 -114 -18 -34 -42 -77 -54 -96 -11 -19 -21
-42 -21 -51 0 -8 -9 -34 -20 -57 -11 -22 -20 -45 -20 -50 0 -5 -11 -30 -25
-56 -32 -61 -33 -127 -2 -198 13 -29 29 -79 37 -111 7 -32 17 -60 22 -63 11
-7 10 -44 -2 -44 -5 0 -13 8 -19 17 -5 10 -13 15 -17 11 -4 -4 5 -43 21 -85
15 -43 34 -112 41 -153 20 -107 36 -315 29 -380 -9 -77 -40 -191 -77 -275 -40
-91 -53 -106 -89 -98 -21 4 -30 1 -35 -11 -10 -26 -31 -18 -43 16 -7 18 -30
52 -53 75 -33 34 -39 46 -30 55 15 15 16 58 1 58 -6 0 -16 -13 -22 -30 -6 -16
-17 -30 -23 -30 -20 0 -24 -30 -9 -67 20 -49 18 -53 -9 -19 -19 23 -29 27 -50
22 -26 -6 -35 -29 -16 -41 6 -3 10 -14 10 -23 0 -22 77 -112 96 -112 8 0 14
-4 14 -10 0 -5 7 -10 16 -10 8 0 22 -6 29 -14 12 -12 12 -15 0 -20 -8 -3 -15
-2 -15 2 0 11 -69 46 -76 39 -3 -3 2 -17 11 -31 16 -24 16 -26 1 -32 -17 -6
-22 -34 -7 -34 5 0 16 -3 24 -6 9 -3 16 3 20 15 3 15 13 21 31 21 14 0 26 -4
26 -10 0 -5 -4 -10 -10 -10 -14 0 -13 -97 2 -102 14 -5 13 -65 -2 -83 -8 -10
-18 -11 -35 -5 -14 5 -26 6 -29 1 -3 -4 -8 -44 -11 -89 l-6 -82 24 0 c14 0 28
-7 31 -16 3 -9 12 -14 20 -11 7 3 30 -5 49 -19 41 -27 48 -29 80 -12 12 6 29
14 37 18 8 4 19 23 23 44 5 21 15 36 23 36 20 0 50 -73 58 -142 5 -48 4 -58
-9 -58 -26 0 -16 -14 24 -34 22 -10 47 -15 59 -12 13 5 21 1 26 -11 10 -30 60
-110 83 -135 12 -13 41 -28 65 -34 54 -14 331 -13 338 1 8 18 -111 67 -148 62
-18 -3 -63 1 -100 9 -37 9 -79 15 -93 15 -20 -1 -29 7 -42 37 -25 57 -23 66
16 57 68 -15 227 -22 245 -11 5 3 18 -1 28 -9 21 -16 64 -20 64 -6 0 5 -6 12
-12 14 -7 3 -3 6 9 6 12 1 37 -7 55 -17 18 -10 60 -29 93 -42 70 -27 132 -68
140 -91 11 -32 50 -37 337 -43 157 -3 294 -9 303 -12 34 -13 -22 -31 -75 -24
-27 3 -57 5 -67 3 -10 -2 -67 -6 -128 -10 -63 -3 -115 -11 -122 -18 -12 -13
-123 -28 -213 -29 -30 -1 -61 -5 -68 -9 -7 -5 -24 -6 -38 -3 -22 6 -27 2 -37
-24 l-11 -30 -221 -2 c-121 -1 -299 -2 -395 -4 -96 -1 -409 -4 -695 -7 -475
-5 -667 -11 -704 -23 -10 -3 -11 -7 -2 -18 9 -10 9 -16 1 -21 -17 -10 -43 3
-37 19 7 18 -11 25 -83 33 -34 3 -72 1 -94 -7 -31 -10 -36 -16 -34 -38 l3 -27
-80 -1 c-78 -2 -81 -1 -106 29 -23 26 -34 31 -86 35 -67 5 -103 -8 -103 -37 0
-31 -24 -44 -54 -30 -20 9 -32 9 -52 0 -28 -12 -30 -12 -91 35 -34 26 -50 32
-95 32 -62 0 -78 -10 -78 -48 0 -27 3 -38 36 -142 16 -52 16 -59 2 -75 -23
-26 -30 -69 -14 -82 16 -14 26 -4 26 26 0 33 15 29 33 -9 15 -33 21 -119 11
-171 l-6 -28 -33 25 c-19 14 -40 24 -47 21 -22 -9 -56 35 -78 99 -11 33 -31
79 -45 104 -14 24 -25 53 -25 63 0 10 -4 20 -8 23 -5 3 -18 35 -31 73 -33 97
-49 115 -114 118 -68 4 -85 -5 -70 -37 7 -13 21 -57 32 -98 12 -41 38 -129 60
-195 44 -137 68 -251 56 -262 -4 -5 -10 -2 -12 5 -8 20 -31 13 -35 -10 -2 -13
-10 -23 -18 -23 -11 0 -16 -13 -18 -43 l-3 -43 -30 37 c-16 20 -29 41 -29 47
0 6 -6 18 -13 26 -7 9 -23 43 -36 76 -12 33 -31 78 -41 100 -10 22 -39 88 -64
147 -24 59 -52 118 -60 130 -9 12 -16 30 -16 40 0 15 -39 52 -47 44 -2 -2 1
-25 7 -51 13 -56 8 -65 -21 -40 -30 28 -40 4 -22 -59 7 -28 25 -91 39 -141 13
-49 28 -103 33 -120 6 -16 17 -61 26 -100 9 -38 25 -93 36 -120 10 -28 19 -61
19 -73 0 -13 16 -57 35 -99 23 -51 33 -83 29 -99 -8 -31 -29 -16 -38 26 -7 35
-33 40 -38 8 -2 -16 -9 -22 -20 -20 -15 2 -18 -5 -18 -37 0 -22 -4 -42 -9 -45
-10 -7 -37 132 -27 141 3 4 6 1 6 -5 0 -19 38 -14 50 7 5 11 10 31 10 44 0 20
-4 23 -25 19 -21 -4 -26 0 -31 27 -4 17 -10 31 -15 31 -5 0 -9 11 -9 24 0 35
-20 43 -40 17 -13 -18 -18 -20 -27 -9 -18 23 -53 97 -53 113 0 9 -6 18 -14 21
-8 3 -16 18 -19 34 -9 43 -122 273 -145 293 -20 18 -20 18 -27 -2 -8 -27 -31
-27 -38 -1 -4 14 -10 18 -22 14 -12 -5 -15 -13 -10 -28 4 -11 9 -46 12 -76 3
-30 9 -59 13 -65 8 -11 26 -83 35 -137 3 -21 10 -38 14 -38 5 0 12 -21 15 -47
2 -27 8 -64 11 -83 6 -33 5 -35 -19 -35 -14 0 -26 3 -26 8 0 4 -5 7 -10 7 -6
0 -23 11 -38 25 -15 14 -33 23 -42 20 -19 -6 -32 4 -46 35 -46 101 -149 299
-166 320 -18 22 -21 23 -29 7 -13 -22 -25 -21 -50 4 -12 12 -25 17 -29 13 -11
-11 4 -136 26 -212 9 -31 20 -79 24 -107 5 -27 12 -65 16 -82 5 -27 3 -33 -10
-33 -9 0 -16 7 -16 15 0 9 -7 29 -16 46 -11 22 -20 28 -33 24 -24 -7 -51 19
-51 50 0 31 -18 42 -34 19 -15 -19 -36 -11 -36 13 0 15 -68 138 -95 173 -7 8
-15 28 -19 45 -4 16 -16 35 -27 43 -10 7 -27 28 -36 45 -15 29 -17 30 -24 12
-4 -11 -8 -14 -8 -7 -1 6 0 13 1 15 1 1 -4 12 -10 24 -11 19 -16 21 -43 11
-30 -10 -30 -11 -24 -62 3 -28 11 -77 17 -108 12 -66 6 -97 -16 -79 -8 7 -20
11 -28 10 -7 -2 -23 0 -35 5 -12 4 -31 2 -42 -3 -23 -13 -28 -8 -71 79 -17 36
-36 72 -41 80 -7 13 -19 38 -59 125 -5 11 -25 54 -43 95 -36 81 -48 94 -89
104 -16 3 -40 9 -54 12 -17 5 -29 2 -35 -7 -10 -14 -3 -76 10 -94 13 -18 33
-114 26 -125 -7 -12 -45 15 -45 32 0 12 -26 38 -37 38 -5 0 -17 13 -26 30 -10
16 -26 30 -35 30 -10 1 -5 6 12 13 l29 13 -26 11 c-14 7 -41 15 -61 18 -19 4
-46 18 -60 32 l-25 24 -148 -7 c-81 -3 -155 -6 -163 -5 -8 1 -77 5 -152 9
-124 6 -140 9 -160 30 -13 13 -17 22 -10 22 9 0 11 10 6 38 -8 46 -10 48 -28
32 -12 -9 -27 -9 -63 -1 -59 13 -381 35 -480 32 -43 -2 -73 2 -73 7 0 6 6 13
13 15 6 3 -14 6 -46 6 -32 1 -71 8 -86 16 -39 19 -111 35 -111 24 0 -5 -7 -9
-16 -9 -9 0 -14 6 -12 13 3 7 28 13 64 15 32 2 68 9 79 15 12 7 94 12 215 14
107 2 245 8 305 13 61 5 137 10 170 12 l60 1 -2 -39 c-1 -21 1 -31 3 -22 3 10
18 31 33 47 15 16 38 49 52 73 13 25 67 110 120 189 53 79 108 168 123 197 36
70 59 166 51 208 -4 26 -2 36 10 41 17 6 145 -40 287 -103 43 -19 79 -34 82
-34 6 0 140 -62 345 -161 90 -44 165 -79 168 -79 3 0 21 -7 41 -16 60 -26 73
-31 172 -67 52 -18 115 -39 140 -46 25 -7 53 -17 62 -22 22 -11 28 -11 28 0 0
10 -79 51 -97 51 -6 0 -16 6 -22 14 -6 7 -32 19 -56 26 -25 7 -45 19 -45 26 0
8 1 14 3 14 2 0 30 5 63 10 89 16 114 28 114 56 0 30 23 31 142 9 194 -37 238
-49 243 -66 3 -9 18 -19 34 -22 15 -3 35 -17 44 -30 16 -24 15 -25 -8 -31 -25
-6 -35 -26 -13 -26 6 0 26 -11 44 -25 18 -14 38 -25 44 -25 6 0 18 -6 26 -14
18 -18 127 -27 371 -29 105 -2 195 -6 199 -10 41 -41 33 163 -12 303 -16 52
-42 208 -54 330 -5 47 -16 141 -24 210 -9 69 -16 182 -16 253 0 106 2 127 15
127 8 0 15 5 15 10 0 6 -7 10 -15 10 -11 0 -15 12 -15 45 0 25 1 45 3 46 1 0
36 2 77 5 41 3 96 9 122 13 39 7 47 5 50 -8 7 -25 -1 -1063 -7 -1070 -3 -3
-10 1 -15 8 -4 8 -15 11 -24 8 -8 -3 -22 0 -30 8 -18 18 -32 19 -38 3 -10 -26
15 -178 28 -178 19 0 28 20 15 33 -6 6 -10 27 -10 47 1 21 3 27 6 15 3 -11 12
-24 19 -28 9 -5 12 -17 8 -33 -5 -18 -2 -24 10 -24 18 0 23 45 6 55 -5 3 -10
13 -10 21 0 12 4 12 20 4 15 -8 19 -20 18 -48 0 -21 4 -46 10 -57 19 -36 40
-100 47 -146 4 -25 10 -51 14 -57 4 -7 58 -13 141 -17 74 -3 158 -8 185 -11
75 -7 425 -7 640 1 l190 7 -22 -21 c-14 -13 -35 -21 -56 -21 -18 0 -38 -5 -43
-10 -6 -6 -65 -14 -132 -17 -88 -4 -122 -10 -126 -20 -11 -26 228 -10 259 18
5 5 22 9 39 9 33 0 43 3 206 54 63 20 125 36 137 36 12 0 61 -30 110 -66 l88
-67 185 8 c102 5 221 9 265 10 114 2 123 3 105 15 -8 5 -69 9 -136 8 -137 -1
-156 4 -120 33 29 23 59 24 116 4 44 -16 60 -13 60 10 0 16 25 26 44 19 8 -3
17 -1 21 5 3 6 15 11 26 11 10 0 19 5 19 10 0 15 22 12 68 -10 22 -11 45 -20
51 -20 5 0 11 -6 14 -12 2 -7 8 -10 12 -6 9 9 -1 19 -95 93 -41 32 -86 69 -99
82 -13 13 -34 23 -48 23 -37 0 -120 49 -153 90 -16 20 -48 73 -71 116 -23 43
-45 84 -49 89 -4 6 -17 39 -30 75 -13 36 -28 71 -34 79 -8 10 -4 19 17 35 15
12 27 31 27 41 1 11 7 31 15 45 8 14 14 40 15 58 0 19 8 47 17 63 15 24 15 35
6 71 -10 35 -9 47 3 65 18 28 18 47 0 62 -15 13 -20 141 -5 141 5 0 9 -13 9
-29 0 -16 4 -31 9 -33 5 -1 11 -25 13 -52 3 -36 11 -54 27 -67 13 -11 27 -19
31 -19 11 0 20 83 11 95 -5 5 -11 35 -14 66 -3 31 -12 70 -21 86 -13 26 -13
32 0 44 10 10 15 39 15 92 1 63 -3 85 -24 124 -14 26 -38 73 -53 103 -39 76
-75 122 -166 214 -51 51 -91 102 -115 149 -32 61 -166 217 -186 217 -12 0 -71
60 -65 65 10 11 181 -98 269 -170 46 -38 111 -100 144 -138 78 -89 111 -124
128 -134 19 -12 77 -104 83 -133 11 -49 38 -116 67 -162 26 -43 31 -47 57 -41
25 5 32 1 47 -26 10 -17 22 -31 27 -31 4 0 21 -14 36 -32 38 -43 60 -33 60 27
0 32 4 45 14 45 19 0 25 110 14 215 -5 44 -11 120 -13 168 -2 49 -6 91 -9 94
-3 4 1 17 9 29 14 21 13 27 -6 63 -17 34 -20 52 -15 123 6 100 16 169 26 183
4 6 10 23 14 38 9 37 59 125 88 157 13 13 38 42 56 63 48 58 120 104 333 214
41 22 86 47 99 56 29 21 36 21 43 4z m1842 -63 c0 -34 -41 -60 -81 -50 -21 6
-25 12 -22 39 3 29 7 33 43 38 55 8 60 6 60 -27z m-2946 -127 c78 -81 196
-248 257 -363 6 -12 23 -39 38 -60 31 -46 69 -164 64 -202 -8 -68 -58 4 -129
186 -18 45 -36 82 -41 82 -4 0 -8 9 -8 19 0 11 -4 21 -9 23 -7 2 -51 65 -96
137 -5 8 -23 34 -40 57 -16 23 -37 52 -45 65 -8 12 -24 32 -36 43 -23 23 -44
59 -44 76 0 18 33 -5 89 -63z m-2266 36 c8 -13 -16 -60 -50 -97 -39 -42 -40
-55 -11 -108 28 -48 19 -65 -45 -92 -38 -16 -49 -17 -61 -6 -23 18 -20 57 4
63 11 3 24 18 30 34 5 15 16 41 25 56 8 16 15 33 15 39 0 6 14 35 31 64 28 49
50 66 62 47z m-1223 -13 c13 -8 15 -47 15 -252 l0 -243 -49 -3 c-32 -2 -52 1
-57 10 -4 7 -8 91 -8 188 1 96 0 181 0 188 -1 6 -14 12 -30 12 -50 0 -61 9
-61 49 0 20 5 42 11 48 13 13 159 16 179 3z m422 -8 c68 -45 98 -119 98 -245
0 -74 -4 -97 -26 -143 -36 -76 -80 -107 -159 -112 -140 -9 -225 91 -225 263 0
107 35 187 99 231 30 20 48 24 111 24 55 0 82 -5 102 -18z m3083 -162 c3 -5 1
-10 -4 -10 -6 0 -11 5 -11 10 0 6 2 10 4 10 3 0 8 -4 11 -10z m-1341 -62 c24
-112 29 -159 28 -263 0 -93 -5 -135 -21 -184 -12 -35 -21 -87 -21 -115 -1 -58
-20 -118 -46 -147 -16 -17 -19 -41 -21 -142 -3 -186 -13 -277 -29 -277 -11 0
-14 17 -15 68 0 87 -6 140 -24 231 -20 98 -19 110 10 173 28 61 32 116 10 159
-14 27 -14 41 -1 142 8 62 18 146 21 187 8 83 25 133 57 167 27 29 46 29 52 1z
m-1091 -98 c35 -59 14 -84 -38 -44 -22 17 -35 35 -35 49 0 43 47 40 73 -5z
m-3073 -20 c0 -11 -6 -20 -14 -20 -18 0 -29 16 -21 30 11 18 35 11 35 -10z
m5273 -20 c14 -11 29 -20 34 -20 13 -1 68 -52 87 -82 17 -25 16 -26 -5 -33
-15 -5 -25 -2 -31 9 -5 9 -13 16 -17 16 -5 0 -22 11 -37 24 -16 13 -42 35 -58
49 -20 16 -27 29 -23 40 8 22 19 21 50 -3z m420 -103 c31 -71 33 -89 12 -107
-8 -7 -15 -26 -15 -42 0 -21 -6 -31 -20 -35 -11 -3 -20 -13 -20 -22 0 -18 35
-61 50 -61 16 0 110 -134 120 -172 6 -20 15 -40 20 -43 6 -3 10 -19 10 -35 0
-16 4 -31 10 -35 12 -7 1 -35 -14 -35 -6 0 -31 39 -56 86 -31 60 -63 104 -104
143 -137 131 -217 217 -222 238 -9 34 3 44 42 37 23 -4 34 -2 34 6 0 19 57 70
78 70 20 0 36 25 26 41 -6 10 3 29 14 29 4 0 19 -29 35 -63z m-1406 -19 c11
-13 25 -32 31 -43 5 -11 35 -51 66 -90 37 -46 56 -79 56 -97 0 -33 44 -100 80
-121 54 -34 120 -104 126 -135 4 -18 3 -32 0 -32 -10 0 -49 21 -62 34 -17 18
-76 63 -114 88 -19 13 -43 41 -53 61 -10 21 -24 40 -32 43 -8 3 -21 28 -30 54
-9 27 -22 54 -30 60 -8 6 -26 44 -42 83 -15 40 -34 78 -43 84 -13 11 -13 14 0
23 21 14 24 13 47 -12z m-1286 -25 c16 -10 29 -25 29 -35 0 -15 -9 -18 -55
-18 -66 0 -84 21 -44 51 30 23 34 23 70 2z m-134 -91 c-6 -15 -17 -34 -24 -43
-11 -14 -11 -18 2 -29 8 -7 15 -23 15 -35 0 -13 11 -32 24 -43 16 -12 22 -23
16 -32 -7 -11 -16 -11 -48 -2 -28 9 -48 9 -67 2 -39 -15 -85 -13 -85 4 0 8 5
18 10 21 6 3 10 20 10 36 0 25 5 30 31 36 18 3 28 11 25 18 -5 15 37 80 61 93
29 17 43 4 30 -26z m-197 -83 c0 -11 -6 -30 -12 -42 -7 -12 -16 -62 -19 -112
l-5 -90 -2 126 c-1 69 1 129 5 132 14 14 33 6 33 -14z m902 -33 c52 -49 84
-114 94 -185 8 -62 -7 -68 -23 -8 -18 65 -64 122 -117 142 -62 24 -87 15 -124
-46 -22 -34 -38 -49 -50 -47 -41 8 -20 102 31 133 121 74 124 74 189 11z
m-1096 20 c5 -21 -64 -221 -96 -278 -16 -29 -12 -38 18 -38 55 0 56 -16 0 -42
-69 -33 -156 -60 -168 -53 -6 4 -10 15 -10 25 0 35 -12 50 -40 50 -31 0 -39
-8 -55 -54 -23 -68 -75 -58 -56 10 6 22 23 93 37 159 46 215 59 247 94 225 11
-7 28 -83 60 -278 7 -40 16 -72 22 -70 14 5 110 249 104 265 -4 10 -14 13 -34
8 -39 -8 -56 14 -48 60 l7 35 79 0 c76 0 80 -1 86 -24z m81 -126 c1 -117 -2
-148 -14 -162 -8 -9 -21 -14 -29 -11 -11 4 -14 35 -14 148 0 79 3 151 6 160 4
9 15 15 28 13 20 -3 21 -8 23 -148z m3957 115 c-10 -9 -31 -22 -46 -30 -24
-13 -28 -13 -28 -1 0 17 17 31 55 43 37 13 45 8 19 -12z m-4456 -165 c-5 -143
-9 -172 -27 -208 -39 -77 -96 -81 -132 -10 -20 38 -21 57 -20 202 1 157 7 186
36 186 21 0 23 -18 18 -165 -4 -119 -3 -143 11 -160 16 -20 16 -20 34 2 16 18
20 47 26 164 7 145 15 173 43 162 14 -5 15 -28 11 -173z m-1338 155 c0 -8 -4
-15 -10 -15 -5 0 -7 7 -4 15 4 8 8 15 10 15 2 0 4 -7 4 -15z m1128 -27 c2 -25
-12 -74 -48 -164 -27 -70 -47 -131 -43 -135 5 -4 24 -9 43 -11 33 -3 35 -5 38
-45 3 -40 2 -42 -30 -48 -18 -4 -56 -5 -83 -3 -75 5 -74 21 7 232 21 55 38
103 38 107 0 4 -17 9 -37 11 -37 3 -38 4 -38 43 0 38 2 40 35 46 19 4 53 6 75
5 39 -1 40 -2 43 -38z m3666 20 c9 -12 14 -24 12 -26 -5 -5 -46 30 -46 40 0
16 19 8 34 -14z m-7084 -146 c-12 -42 -26 -87 -31 -100 -5 -13 -9 -33 -9 -45
-1 -12 -7 -33 -16 -47 -14 -23 -14 -21 -8 40 6 65 47 206 65 225 5 5 10 18 10
30 2 18 2 18 6 -3 2 -12 -5 -57 -17 -100z m-2803 32 c1 -5 -2 -16 -7 -24 -12
-20 -35 2 -26 25 6 17 27 16 33 -1z m1918 -48 c138 -37 259 -57 297 -50 35 7
118 41 182 75 46 25 60 16 46 -31 -6 -19 -14 -60 -19 -92 -11 -64 -51 -127
-108 -170 -33 -25 -45 -28 -119 -28 -78 0 -137 9 -294 46 -130 30 -182 48
-196 68 -19 27 -20 222 -1 229 12 4 41 -2 212 -47z m-2060 9 c-73 -60 -199
-76 -384 -50 -68 9 -146 15 -173 13 -67 -7 -42 6 57 27 77 17 133 20 355 15
58 -2 116 2 130 8 41 18 47 13 15 -13z m7568 -21 c69 -34 191 -73 249 -81 27
-3 56 -12 65 -19 16 -12 10 -13 -42 -14 -43 0 -88 10 -160 36 -55 19 -119 41
-142 48 -54 15 -74 33 -53 46 21 14 24 13 83 -16z m-2474 -31 c-7 -10 -15 -20
-16 -22 -2 -2 -3 5 -3 17 0 14 6 22 16 22 14 0 15 -3 3 -17z m-955 -38 c-4 -8
-8 -15 -10 -15 -2 0 -4 7 -4 15 0 8 4 15 10 15 5 0 7 -7 4 -15z m-3975 -11
c21 -5 31 -12 31 -25 0 -17 -8 -19 -64 -19 -65 0 -83 9 -72 35 6 16 51 20 105
9z m3487 -15 c3 -6 -1 -18 -10 -27 -15 -15 -16 -14 -16 11 0 27 13 36 26 16z
m4539 -126 c-3 -29 -11 -56 -17 -59 -18 -11 -318 -4 -344 8 -38 18 -11 26 66
20 71 -5 196 12 217 30 7 6 13 21 13 34 0 17 6 24 20 24 11 0 25 9 32 20 13
21 13 21 16 -1 2 -13 1 -46 -3 -76z m-8410 71 c19 -8 19 -8 -5 -15 -24 -7 -24
-7 8 -14 17 -4 32 -11 32 -15 0 -14 -147 -42 -247 -47 -80 -5 -103 -3 -103 7
0 20 68 79 103 90 35 10 180 7 212 -6z m415 2 c0 -2 3 -12 7 -21 5 -16 0 -17
-53 -13 -34 2 -71 11 -84 21 -24 17 -23 17 53 17 42 0 77 -2 77 -4z m10 -126
c0 -29 -2 -30 -42 -30 -64 0 -260 17 -368 32 l-95 13 205 5 c113 3 226 7 253
8 46 2 47 1 47 -28z m2655 -42 c-26 -109 -57 -448 -66 -723 -12 -352 -3 -319
-114 -450 -80 -94 -123 -166 -142 -239 -14 -49 -31 -80 -68 -125 l-50 -61 -72
0 c-71 0 -73 0 -89 32 -20 38 -132 342 -179 483 -39 118 -88 292 -110 390 -9
39 -25 106 -35 150 -28 125 -45 233 -41 273 1 16 23 15 58 -2 15 -8 35 -17 43
-21 8 -3 29 -13 45 -23 44 -27 333 -149 385 -162 56 -15 147 -7 205 19 78 34
155 120 155 172 0 25 20 110 31 131 5 10 9 33 9 52 0 19 5 38 10 41 6 3 10 24
10 46 0 21 5 39 10 39 6 0 8 -10 5 -22z m-780 -85 c156 -64 220 -83 274 -83
103 0 176 29 275 109 63 50 70 45 63 -51 -8 -112 -31 -185 -70 -221 l-32 -29
-110 5 c-105 5 -141 12 -345 70 -47 13 -116 32 -155 41 -38 10 -78 25 -88 35
-22 21 -43 191 -25 202 6 4 43 -7 82 -23 39 -17 98 -41 131 -55z m-773 -148
c89 -71 80 -70 203 -18 79 33 115 41 115 25 0 -5 -16 -53 -35 -108 -19 -54
-35 -105 -35 -112 0 -7 32 -52 70 -98 39 -47 70 -90 70 -95 0 -11 0 -11 -131
-9 l-107 1 -25 -33 c-13 -18 -42 -62 -64 -98 -41 -69 -62 -81 -73 -40 -36 125
-55 186 -60 193 -4 4 -54 20 -111 34 -104 26 -133 38 -124 53 3 4 48 36 101
71 l96 64 -7 128 -7 129 23 -12 c12 -7 58 -41 101 -75z m11354 -45 c-8 -136
-17 -119 109 -204 62 -42 84 -61 76 -69 -6 -6 -59 -23 -117 -38 -59 -15 -110
-31 -114 -36 -3 -4 -19 -51 -34 -103 -15 -52 -30 -101 -32 -108 -8 -26 -29 -5
-75 71 -73 123 -66 118 -189 117 -133 -1 -130 -2 -130 9 0 5 32 48 70 95 39
48 70 92 70 99 0 14 -27 98 -46 142 -7 17 -16 42 -19 58 -10 37 7 36 128 -12
l98 -39 47 34 c26 19 64 45 85 59 21 14 40 32 43 40 3 8 13 11 21 8 13 -5 15
-23 9 -123z m-2831 10 c3 -6 50 -10 106 -10 l99 0 -1 -37 c-1 -37 -1 -37 -10
-11 -10 25 -13 26 -97 30 -62 2 -94 8 -112 21 -18 13 -20 17 -8 17 9 0 20 -4
23 -10z m-7075 -36 c0 -14 -90 -94 -127 -113 -66 -33 -73 -25 -13 15 49 33 71
50 113 91 13 13 27 17 27 7z m7283 -94 c-7 -8 -22 24 -16 34 4 5 10 1 13 -10
4 -10 6 -21 3 -24z m-7153 -47 c0 -35 -4 -53 -9 -47 -9 8 -3 104 5 104 2 0 4
-26 4 -57z m-23 -340 c-2 -32 -3 -8 -3 52 0 61 1 87 3 58 2 -29 2 -78 0 -110z
m0 -155 c-3 -7 -5 -2 -5 12 0 14 2 19 5 13 2 -7 2 -19 0 -25z m7885 -43 c3 -3
43 -7 89 -9 74 -2 155 -20 169 -37 10 -11 208 -119 219 -119 6 0 11 -4 11 -10
0 -5 7 -10 15 -10 8 0 15 -4 15 -10 0 -5 6 -10 13 -10 16 -1 52 -28 45 -35 -3
-3 -24 4 -46 15 -23 12 -46 19 -51 16 -5 -4 -12 -2 -16 4 -3 5 -25 10 -48 10
-36 0 -39 1 -23 13 17 13 16 15 -20 38 -32 19 -53 24 -114 24 -41 0 -88 7
-105 14 -16 7 -52 14 -80 16 -52 2 -151 31 -161 46 -12 20 17 49 50 49 18 0
35 -2 38 -5z m-7927 -144 c-3 -6 -11 -11 -17 -11 -6 0 -6 6 2 15 14 17 26 13
15 -4z m8255 -11 c0 -5 -4 -10 -10 -10 -5 0 -10 5 -10 10 0 6 5 10 10 10 6 0
10 -4 10 -10z m-8323 -52 c-3 -8 -6 -5 -6 6 -1 11 2 17 5 13 3 -3 4 -12 1 -19z
m-37 -53 c-7 -9 -15 -13 -17 -11 -7 7 7 26 19 26 6 0 6 -6 -2 -15z m1357 -82
c43 -54 80 -100 83 -103 3 -3 23 -30 46 -60 45 -60 61 -105 43 -116 -14 -8
-802 -6 -836 3 -32 7 -28 33 7 46 17 6 30 15 30 19 0 4 4 8 9 8 5 0 47 21 93
48 46 26 105 58 132 72 26 14 102 59 169 102 67 42 127 77 134 77 6 1 46 -43
90 -96z m-1401 32 c-14 -14 -16 -14 -16 -2 0 9 6 17 13 20 19 7 21 -1 3 -18z
m5578 -84 c3 -4 -1 -17 -9 -27 -14 -18 -14 -18 -15 9 0 26 13 36 24 18z
m-5185 -95 c12 -15 55 -14 247 5 125 12 147 6 101 -27 -17 -12 -52 -32 -77
-44 -25 -11 -53 -25 -62 -30 -18 -10 -340 -14 -350 -4 -15 14 8 44 60 77 65
42 65 42 81 23z m-321 -20 c6 -15 1 -26 -12 -26 -8 0 -18 -9 -21 -20 -8 -25
-43 -34 -104 -27 -29 3 -53 1 -59 -5 -6 -6 -18 -8 -27 -4 -14 5 -13 10 7 38
13 18 29 37 36 43 13 11 175 12 180 1z m3315 -531 c4 -8 2 -17 -3 -20 -6 -4
-10 3 -10 14 0 25 6 27 13 6z m2427 -272 c7 -16 20 -42 28 -60 16 -32 13 -51
-6 -39 -5 3 -13 18 -17 33 -3 16 -12 35 -19 43 -14 16 -18 50 -6 50 4 0 13
-12 20 -27z m-1797 -293 c27 -69 55 -138 62 -155 7 -16 32 -79 56 -140 61
-160 219 -545 236 -580 9 -16 22 -35 29 -43 8 -7 14 -16 14 -20 0 -10 51 -32
74 -32 27 0 53 -17 43 -27 -10 -10 -340 -4 -350 7 -5 4 -4 17 1 27 9 15 -1 51
-44 169 -31 82 -59 153 -64 158 -10 10 -327 12 -337 2 -14 -14 -103 -261 -103
-286 0 -32 15 -47 50 -52 14 -1 25 -9 25 -17 0 -12 -31 -14 -167 -15 -154 -1
-168 0 -168 17 0 12 8 17 32 17 42 0 93 41 116 93 10 23 47 114 81 202 35 88
67 169 72 180 4 11 31 79 59 150 28 72 57 144 65 160 7 17 30 75 50 130 58
161 72 187 97 183 19 -2 31 -25 71 -128z m1621 101 c8 -15 33 -75 56 -132 22
-57 45 -113 50 -124 5 -11 47 -117 93 -235 47 -118 93 -235 104 -260 11 -25
39 -90 62 -146 56 -135 88 -167 174 -172 54 -4 65 -1 82 18 19 21 20 38 23
493 l3 470 -22 24 c-13 12 -34 23 -48 23 -41 0 -71 11 -71 26 0 13 31 20 55
14 6 -2 123 -4 260 -5 209 -1 259 -5 305 -19 74 -25 124 -66 156 -132 24 -48
26 -63 22 -129 -6 -94 -42 -167 -121 -247 -35 -36 -55 -63 -51 -71 15 -26 239
-304 278 -345 83 -88 165 -133 215 -117 42 13 46 55 46 525 0 514 4 493 -85
505 -30 4 -49 12 -47 18 2 8 107 11 345 11 l342 1 -1 -25 c-1 -57 -25 -175
-34 -171 -5 2 -16 23 -23 46 -10 37 -18 45 -50 56 -20 7 -86 13 -147 13 l-110
1 -3 -185 c-2 -162 0 -186 14 -197 24 -18 250 -5 286 15 18 10 31 13 37 7 9
-9 -3 -181 -14 -213 -8 -21 -22 -5 -29 33 -10 53 -39 66 -161 72 -76 4 -109 2
-120 -7 -22 -18 -22 -361 0 -414 8 -20 16 -36 18 -36 1 0 40 -5 85 -10 112
-14 192 1 227 42 14 16 25 40 25 52 0 28 10 39 25 26 7 -6 9 -28 4 -67 -4 -32
-8 -68 -8 -80 -1 -13 -10 -32 -20 -42 -18 -18 -37 -19 -436 -15 -346 4 -423 7
-450 20 -56 26 -138 115 -240 263 -55 78 -108 149 -119 157 -25 17 -127 19
-144 2 -25 -25 -9 -364 18 -391 4 -5 32 -12 61 -15 38 -5 54 -11 54 -22 0 -13
-51 -15 -378 -15 -209 0 -383 2 -388 6 -5 3 -4 18 3 35 9 24 8 37 -6 65 -9 19
-20 48 -26 64 -21 67 -56 161 -68 183 -13 22 -15 22 -180 20 l-166 -3 -55
-149 c-61 -165 -61 -178 5 -186 24 -3 39 -10 39 -19 0 -11 -33 -14 -175 -16
-165 -2 -208 4 -194 26 3 5 20 9 39 9 52 0 100 34 125 88 13 26 47 111 76 190
30 78 63 161 73 185 20 45 83 203 152 382 23 61 53 134 65 163 13 29 24 56 24
60 0 12 23 32 37 32 7 0 19 -13 27 -29z m4121 -36 c14 -30 25 -57 25 -60 0 -4
15 -43 34 -88 19 -45 60 -147 91 -227 32 -80 63 -158 71 -175 7 -16 40 -100
74 -185 97 -244 127 -289 201 -299 23 -3 44 -12 47 -18 3 -10 -36 -13 -170
-13 -96 0 -177 3 -181 6 -3 3 -1 17 5 30 9 18 7 32 -5 61 -9 21 -34 88 -56
148 -23 61 -49 116 -58 123 -13 9 -59 12 -169 10 -84 -2 -155 -6 -158 -9 -11
-11 -86 -200 -97 -245 -17 -67 -7 -90 42 -98 82 -13 23 -25 -140 -27 -113 -2
-166 1 -168 8 -4 12 8 17 65 28 23 5 40 18 57 43 22 34 91 199 194 467 24 61
49 125 57 142 8 18 21 51 29 73 8 22 21 55 29 73 8 17 36 86 62 152 26 66 51
125 56 132 16 20 36 3 63 -52z m-1583 41 c7 -7 58 -60 112 -117 55 -57 176
-183 270 -279 94 -96 224 -230 288 -297 72 -75 120 -118 124 -111 7 11 6 96
-5 498 l-6 224 -34 23 c-20 13 -49 23 -69 23 -29 0 -34 3 -24 13 18 17 349 18
356 1 3 -7 -11 -14 -35 -18 -72 -12 -72 -10 -76 -511 -2 -242 -6 -468 -9 -502
-5 -56 -8 -63 -28 -63 -25 0 -609 578 -756 750 -61 71 -61 70 -55 -227 7 -340
11 -407 30 -442 16 -33 33 -41 81 -41 24 0 34 -5 34 -15 0 -13 -23 -15 -147
-15 -82 0 -164 -3 -184 -6 -28 -5 -37 -2 -42 10 -5 11 1 17 21 21 63 13 76 21
85 50 5 17 12 253 16 525 3 272 10 501 14 508 10 16 22 15 39 -2z m-8935 -21
l23 -5 -25 -48 c-14 -26 -59 -99 -100 -162 -40 -63 -90 -142 -111 -175 -62
-99 -144 -226 -193 -298 -49 -73 -93 -140 -155 -238 -31 -49 -36 -63 -25 -70
8 -5 111 -7 229 -6 233 3 261 8 310 61 13 15 29 41 35 58 5 17 16 33 23 36 16
5 16 -73 -1 -148 -22 -101 21 -92 -430 -90 -219 0 -404 3 -412 6 -8 4 -15 11
-15 18 0 6 37 67 83 136 45 69 122 188 171 265 49 77 127 197 173 267 46 70
83 129 83 131 0 2 25 42 55 88 36 54 51 87 45 93 -15 15 -212 19 -340 6 -113
-11 -116 -12 -153 -48 -21 -20 -41 -48 -44 -62 -14 -62 -48 -68 -40 -7 11 81
27 182 31 192 3 10 738 10 783 0z m481 6 c27 -2 9 -20 -27 -26 -74 -12 -73
-10 -69 -408 l4 -352 27 -70 c46 -117 133 -178 253 -179 132 0 226 66 266 188
22 69 23 81 23 423 -1 399 2 386 -82 399 -26 4 -42 11 -40 18 5 16 349 16 354
-1 2 -6 -12 -14 -35 -18 -65 -11 -66 -17 -69 -385 -4 -350 -9 -391 -60 -498
-35 -72 -136 -154 -224 -182 -82 -27 -252 -29 -325 -4 -85 28 -152 73 -193
127 -77 105 -91 199 -91 607 0 330 1 325 -80 336 -36 5 -48 10 -41 18 6 7 71
11 203 10 106 -1 199 -2 206 -3z m5308 -75 c3 -8 4 -25 2 -38 -3 -22 -4 -22
-20 8 -16 30 -15 44 4 44 5 0 11 -6 14 -14z m101 -238 c-2 -13 -4 -5 -4 17 -1
22 1 32 4 23 2 -10 2 -28 0 -40z m22 -65 c13 -28 2 -51 -18 -39 -13 8 -15 66
-3 66 5 0 14 -12 21 -27z m455 -889 c3 -9 6 -24 6 -35 0 -11 4 -27 9 -37 5 -9
15 -38 22 -64 6 -27 16 -48 20 -48 5 0 9 -15 9 -32 -1 -33 -1 -33 -14 -9 -11
20 -14 21 -19 6 -4 -9 -7 -25 -7 -36 0 -10 -4 -19 -9 -19 -5 0 -12 -10 -14
-22 -3 -17 -5 -15 -6 9 0 17 -8 38 -16 47 -8 8 -15 21 -15 30 0 8 -5 18 -11
22 -11 6 -8 61 5 94 3 8 2 22 -3 30 -8 12 -13 12 -35 0 -22 -11 -26 -21 -27
-59 -1 -42 -2 -43 -8 -15 -4 17 -11 36 -15 43 -4 6 2 27 14 46 17 27 28 35 51
35 19 0 29 5 29 15 0 20 26 19 34 -1z m624 -45 c10 -16 16 -18 27 -9 10 8 15
8 20 0 4 -7 19 -9 35 -5 37 8 66 -8 74 -42 4 -14 16 -45 27 -67 10 -22 19 -46
19 -53 0 -8 7 -25 16 -38 23 -36 34 -91 20 -105 -8 -9 -8 -14 2 -17 15 -6 72
-118 72 -144 0 -12 -7 -19 -18 -19 -10 0 -28 -7 -40 -16 -20 -14 -23 -14 -28
0 -8 21 -24 10 -24 -17 0 -21 0 -21 -24 3 -12 14 -33 52 -46 85 -13 33 -27 65
-32 71 -5 7 -19 50 -32 95 -13 46 -32 100 -43 119 -18 33 -53 143 -53 168 0
19 14 14 28 -9z m389 -71 c-3 -7 -5 -2 -5 12 0 14 2 19 5 13 2 -7 2 -19 0 -25z
m1095 -183 l0 -170 -27 0 -28 0 2 164 c1 91 5 169 8 174 3 4 14 7 25 5 20 -3
21 -9 20 -173z m136 139 c20 -23 23 -34 18 -68 -4 -22 -13 -48 -21 -57 -25
-26 -17 -52 33 -108 43 -49 50 -53 70 -42 12 6 22 18 22 25 0 7 9 35 21 62 24
58 29 71 62 149 13 33 28 60 33 60 10 0 39 -56 75 -145 43 -106 61 -145 76
-162 14 -16 14 -18 0 -24 -31 -12 -49 2 -72 56 -13 31 -31 57 -40 58 -12 3
-15 10 -11 26 7 28 -18 100 -36 104 -15 3 -44 -80 -33 -97 3 -6 17 -11 31 -11
13 0 24 -5 24 -11 0 -7 -11 -9 -27 -6 -38 7 -59 -11 -67 -58 -10 -60 -19 -69
-68 -67 -45 2 -55 10 -151 122 -29 35 -29 37 5 54 18 9 24 21 26 60 4 56 -13
80 -59 90 -50 10 -35 29 18 23 35 -4 53 -12 71 -33z m726 14 c8 -13 7 -21 -2
-30 -9 -9 -15 -10 -20 -2 -26 40 -137 47 -189 12 -81 -56 -71 -195 20 -262 36
-26 152 -31 167 -6 7 11 12 12 21 3 8 -8 5 -17 -11 -33 -20 -20 -30 -22 -94
-18 -129 9 -197 64 -204 167 -4 74 26 137 83 168 34 20 52 23 129 21 71 -3 91
-6 100 -20z m145 13 c10 -6 11 -13 2 -29 -12 -23 -15 -71 -5 -96 4 -12 20 -16
55 -16 42 0 49 -3 49 -20 0 -21 -24 -28 -35 -10 -9 15 -42 12 -59 -6 -19 -18
-22 -95 -5 -126 10 -18 17 -20 66 -14 42 5 54 3 51 -6 -3 -9 -30 -13 -88 -13
l-83 0 1 170 c0 94 1 171 1 173 2 6 37 1 50 -7z m101 -6 c14 -17 11 -18 -40
-15 -40 2 -45 5 -35 19 9 16 61 13 75 -4z m302 10 c10 -4 13 -41 12 -173 l-2
-167 -23 -3 -24 -3 2 173 c1 95 2 174 3 176 0 4 18 2 32 -3z m580 0 c10 -4 12
-39 11 -163 -2 -86 -5 -163 -8 -169 -2 -7 -13 -13 -24 -13 -18 0 -19 9 -20
167 0 122 3 169 12 175 15 9 12 9 29 3z m331 -1 c12 -4 14 -18 10 -64 -8 -85
12 -90 75 -19 80 90 83 92 95 80 8 -8 -8 -28 -57 -75 -81 -76 -82 -71 34 -178
44 -41 80 -78 80 -81 0 -4 -12 -7 -26 -7 -19 0 -47 20 -103 75 -43 41 -83 75
-90 75 -10 0 -12 -18 -10 -72 4 -71 3 -73 -19 -73 l-24 0 0 162 c0 144 4 183
17 183 2 0 10 -3 18 -6z m-766 -30 c22 -22 25 -32 20 -67 -4 -26 -14 -49 -27
-59 -26 -21 -48 -24 -33 -5 33 41 18 123 -24 133 -18 5 -21 9 -11 15 23 15 48
10 75 -17z m225 -79 c22 -55 53 -127 68 -159 16 -33 27 -63 24 -68 -12 -18
-45 -7 -56 20 -40 98 -33 92 -98 92 l-59 0 -12 -42 c-15 -58 -23 -72 -44 -76
-15 -3 -17 1 -11 23 4 15 15 46 26 69 10 22 36 87 57 144 24 65 43 101 51 100
8 -2 32 -48 54 -103z m333 99 c19 -8 45 -55 45 -83 0 -11 -12 -33 -26 -50 -33
-39 -28 -55 41 -128 53 -57 58 -82 16 -68 -12 3 -48 39 -81 78 -53 63 -58 72
-43 80 31 16 43 39 43 80 0 40 -27 77 -57 77 -7 0 -13 5 -13 10 0 11 49 14 75
4z m-5081 -19 c3 -8 1 -15 -4 -15 -6 0 -10 7 -10 15 0 8 2 15 4 15 2 0 6 -7
10 -15z m-308 -112 c-11 -11 -17 4 -9 23 7 18 8 18 11 1 2 -10 1 -21 -2 -24z
m1118 -12 c18 -55 20 -71 8 -71 -9 0 -32 72 -32 100 0 32 6 24 24 -29z m-374
-3 c0 -15 -19 -8 -29 11 -14 25 0 37 16 15 7 -10 13 -21 13 -26z m-776 17 c-4
-8 -8 -15 -10 -15 -2 0 -4 7 -4 15 0 8 4 15 10 15 5 0 7 -7 4 -15z m1302 -75
c-2 -9 -4 -6 -5 7 0 12 -5 25 -11 28 -5 3 -10 18 -9 33 0 24 2 22 15 -13 8
-22 13 -46 10 -55z m-439 17 c1 -43 22 -99 42 -112 6 -3 7 10 4 32 -3 21 -10
40 -15 41 -4 2 -8 22 -8 45 0 41 0 41 18 22 23 -24 82 -166 82 -196 0 -20 -1
-21 -24 -5 -23 15 -25 14 -31 -3 -3 -10 -3 -25 0 -33 8 -21 -33 -70 -57 -66
-14 2 -26 20 -40 58 -27 75 -39 118 -45 162 -4 33 -2 39 20 49 14 6 28 22 32
36 9 36 22 19 22 -30z m401 -14 c13 -30 16 -83 5 -83 -19 1 -30 18 -36 56 -9
58 9 74 31 27z m-58 -3 c0 -5 -4 -10 -10 -10 -5 0 -10 5 -10 10 0 6 5 10 10
10 6 0 10 -4 10 -10z m133 -74 c19 -54 8 -79 -22 -52 -24 22 -27 47 -9 76 7
11 14 20 14 20 1 0 9 -20 17 -44z m1254 -296 c10 0 23 -44 23 -76 0 -20 -28
-17 -33 4 -3 13 -6 10 -11 -10 -6 -19 -15 -28 -28 -28 -11 0 -29 -5 -41 -11
-18 -10 -25 -8 -49 22 -29 35 -38 92 -16 105 6 4 26 7 44 6 18 -1 38 5 45 14
10 13 15 12 34 -6 12 -11 26 -20 32 -20z"/>
<path d="M8492 11798 c-7 -7 -12 -19 -12 -27 0 -8 -16 -42 -35 -77 -19 -34
-38 -82 -41 -107 -11 -76 -27 -88 -140 -103 -54 -7 -117 -13 -139 -14 -22 0
-57 -5 -78 -11 -36 -10 -37 -10 -23 -37 8 -15 60 -70 116 -122 l102 -95 -5
-45 c-3 -25 -13 -81 -21 -125 -9 -44 -16 -101 -16 -127 l0 -47 28 13 c15 8 65
33 112 56 47 23 101 50 120 61 44 24 54 24 115 -5 27 -13 61 -29 75 -35 14 -6
32 -15 40 -21 32 -21 111 -52 117 -46 4 3 -2 52 -11 109 -10 56 -22 127 -27
157 l-8 55 109 106 c61 58 110 111 110 117 0 13 -23 20 -70 22 -68 4 -69 3
-72 -42 l-3 -43 -47 -1 c-57 -1 -71 -11 -87 -64 -19 -63 -60 -65 -61 -3 0 32
-40 73 -75 76 -45 5 -55 14 -55 51 0 39 -25 66 -72 75 -51 11 -46 34 16 77 46
32 53 41 45 57 -6 10 -9 30 -7 45 2 22 8 27 31 27 25 -1 27 2 22 25 -9 38 -27
80 -34 80 -4 0 -12 -5 -19 -12z"/>
<path d="M6553 10940 c-18 -44 -33 -86 -33 -94 0 -9 23 -22 60 -33 58 -18 59
-19 47 -43 -9 -19 -22 -26 -49 -28 -44 -4 -69 -30 -77 -79 -6 -34 -10 -38 -45
-45 -52 -11 -65 -23 -72 -70 -4 -22 -14 -43 -25 -48 -15 -9 -16 -15 -7 -40 5
-17 8 -41 5 -53 -3 -12 -13 -51 -22 -87 -9 -36 -14 -78 -12 -93 2 -18 -1 -31
-10 -34 -7 -3 -13 -12 -13 -19 0 -12 4 -12 24 1 26 18 40 8 29 -21 -6 -15 -2
-16 32 -11 21 4 75 24 119 47 45 22 86 40 93 40 7 0 54 -23 105 -51 81 -44
148 -74 183 -82 19 -4 17 69 -6 196 l-23 127 123 122 c83 83 118 124 109 128
-20 11 -134 30 -235 39 -51 5 -100 14 -108 21 -19 15 -39 60 -56 120 -17 59
-74 164 -91 168 -8 1 -25 -28 -45 -78z"/>
<path d="M6210 10571 c0 -21 73 -85 84 -74 11 11 6 48 -10 71 -20 29 -74 31
-74 3z"/>
<path d="M12160 9971 c0 -24 31 -32 99 -25 78 7 91 18 34 28 -56 9 -133 7
-133 -3z"/>
<path d="M7978 9770 c-22 -18 -49 -57 -68 -98 -18 -37 -37 -74 -44 -82 -11
-14 -65 -136 -81 -185 -26 -78 -45 -220 -45 -330 0 -167 11 -211 72 -280 28
-30 57 -55 66 -55 14 1 13 4 -5 19 -13 11 -23 23 -23 27 0 4 -11 21 -24 39
-13 17 -30 51 -37 76 -18 61 -18 308 0 379 46 187 134 384 208 470 49 55 38
67 -19 20z"/>
<path d="M5202 9668 c-6 -7 -36 -71 -67 -143 -32 -71 -64 -138 -73 -147 -9
-11 -30 -18 -56 -19 -76 -1 -289 -34 -293 -45 -3 -10 131 -145 205 -206 18
-15 39 -43 48 -63 11 -28 20 -35 42 -35 40 0 52 12 59 56 3 21 11 42 16 46 16
10 37 -2 37 -21 0 -29 59 -91 86 -91 41 0 64 -18 64 -49 0 -46 24 -58 129 -63
l94 -4 -7 90 -6 91 127 122 c78 76 124 126 118 132 -11 9 -238 41 -296 41 -32
0 -69 23 -69 43 0 14 -133 277 -140 277 -4 0 -12 -6 -18 -12z"/>
<path d="M7810 9066 c0 -21 5 -26 25 -26 21 0 23 3 16 23 -12 33 -41 35 -41 3z"/>
<path d="M7810 8971 c0 -34 56 -95 120 -128 64 -35 68 -28 11 20 -27 23 -66
63 -86 90 -20 26 -38 47 -40 47 -3 0 -5 -13 -5 -29z"/>
<path d="M7920 8977 c0 -36 105 -88 176 -86 l39 0 -52 17 c-28 10 -55 21 -59
25 -4 4 -14 7 -21 7 -8 0 -30 12 -49 26 -26 21 -34 23 -34 11z"/>
<path d="M8237 8763 c-4 -3 -27 -5 -51 -5 -52 2 -70 -14 -29 -25 44 -12 310
-10 323 3 8 8 -20 14 -97 22 -125 14 -137 14 -146 5z"/>
<path d="M8888 8725 c-2 -3 -42 -12 -88 -21 -101 -19 -154 -39 -144 -55 7 -12
40 -9 124 11 25 6 105 19 179 28 171 22 189 42 39 42 -58 0 -107 -2 -110 -5z"/>
<path d="M8000 8692 c0 -6 8 -15 18 -20 30 -17 164 -34 208 -28 81 11 202 -13
387 -75 99 -34 203 -63 235 -65 l57 -5 -29 17 c-16 9 -66 29 -110 45 -45 15
-110 39 -146 52 -36 13 -72 26 -80 29 -8 3 -31 10 -50 17 -19 7 -123 16 -230
21 -107 5 -210 12 -227 16 -21 4 -33 3 -33 -4z"/>
<path d="M14116 8754 c-3 -9 -6 -47 -6 -84 l0 -69 36 -7 c36 -7 117 1 136 12
14 9 1 146 -15 156 -6 4 -42 8 -78 8 -52 0 -68 -4 -73 -16z"/>
<path d="M13912 8488 l3 -93 47 -2 c26 -1 67 1 90 5 l43 8 -2 78 c-1 53 -6 82
-15 87 -7 5 -48 9 -91 9 l-78 0 3 -92z"/>
<path d="M14370 8560 c-8 -5 -25 -10 -37 -10 -21 0 -23 -5 -23 -47 0 -92 3
-94 83 -91 l71 3 2 50 c4 89 -17 141 -32 81 -7 -28 -16 -33 -59 -32 -44 1 -41
21 3 21 26 0 37 4 37 15 0 18 -25 24 -45 10z m0 -94 c0 -3 -4 -8 -10 -11 -5
-3 -10 -1 -10 4 0 6 5 11 10 11 6 0 10 -2 10 -4z"/>
<path d="M13778 8413 c7 -3 16 -2 19 1 4 3 -2 6 -13 5 -11 0 -14 -3 -6 -6z"/>
<path d="M13835 8393 c11 -3 22 -9 25 -13 9 -13 50 -22 50 -11 0 14 -10 18
-55 25 -22 3 -31 3 -20 -1z"/>
<path d="M14126 8382 c-11 -2 -16 -14 -16 -37 0 -19 -4 -37 -10 -40 -5 -3 -10
-10 -10 -14 0 -18 191 -68 212 -55 5 3 4 11 -3 20 -6 7 -11 38 -10 68 l0 54
-73 4 c-41 2 -81 2 -90 0z"/>
<path d="M14025 8310 c3 -5 16 -10 28 -10 18 0 19 2 7 10 -20 13 -43 13 -35 0z"/>
<path d="M14363 8223 c9 -2 25 -2 35 0 9 3 1 5 -18 5 -19 0 -27 -2 -17 -5z"/>
<path d="M7143 8025 c0 -22 2 -30 4 -17 2 12 2 30 0 40 -3 9 -5 -1 -4 -23z"/>
<path d="M7285 8007 c-4 -10 -5 -21 -1 -24 10 -10 18 4 13 24 -4 17 -4 17 -12
0z"/>
<path d="M6780 7925 c-15 -18 -6 -45 14 -45 23 0 29 18 13 40 -12 18 -16 19
-27 5z"/>
<path d="M6682 7868 c-16 -16 -15 -28 3 -28 8 0 15 6 15 14 0 8 6 17 13 19 8
4 7 6 -3 6 -9 1 -21 -4 -28 -11z"/>
<path d="M7230 7820 c0 -11 5 -20 10 -20 6 0 10 9 10 20 0 11 -4 20 -10 20 -5
0 -10 -9 -10 -20z"/>
<path d="M6520 7740 c0 -23 16 -26 36 -6 20 20 18 26 -11 26 -18 0 -25 -5 -25
-20z"/>
<path d="M6440 7715 c-10 -13 -9 -15 8 -15 15 0 20 5 16 15 -4 8 -7 15 -9 15
-1 0 -8 -7 -15 -15z"/>
<path d="M6267 7593 c-10 -9 -9 -23 2 -23 5 0 11 7 15 15 5 15 -5 20 -17 8z"/>
<path d="M5985 7450 c-3 -5 -4 -10 -1 -10 2 0 11 -3 20 -6 11 -4 16 -1 16 10
0 18 -25 22 -35 6z"/>
<path d="M6041 7404 c0 -11 3 -14 6 -6 3 7 2 16 -1 19 -3 4 -6 -2 -5 -13z"/>
<path d="M5950 7294 c0 -8 5 -12 10 -9 6 4 8 11 5 16 -9 14 -15 11 -15 -7z"/>
<path d="M12100 6658 c0 -13 5 -30 10 -38 7 -11 10 -5 10 23 0 20 -4 37 -10
37 -5 0 -10 -10 -10 -22z"/>
<path d="M12072 6583 c3 -5 10 -23 17 -40 15 -39 31 -43 31 -9 0 38 -10 56
-32 56 -11 0 -18 -3 -16 -7z"/>
<path d="M11813 6558 c-25 -26 -30 -49 -11 -45 23 4 39 27 36 48 -3 21 -3 20
-25 -3z"/>
<path d="M11845 6515 c-3 -11 -13 -35 -21 -53 -8 -18 -13 -45 -13 -60 2 -23 2
-24 6 -4 5 25 33 31 33 6 0 -8 4 -12 10 -9 6 4 5 13 -2 25 -9 15 -9 24 0 42 9
16 10 31 4 48 -9 24 -10 24 -17 5z"/>
<path d="M11912 6435 c2 -14 8 -26 13 -26 6 0 11 12 13 26 2 18 -1 25 -13 25
-12 0 -15 -7 -13 -25z"/>
<path d="M11825 6371 c-3 -5 -1 -12 5 -16 5 -3 10 1 10 9 0 18 -6 21 -15 7z"/>
<path d="M11823 6024 c-16 -16 -17 -34 -3 -34 6 0 10 4 10 9 0 5 7 11 17 13
14 3 14 5 2 14 -11 9 -17 9 -26 -2z"/>
<path d="M11850 5940 c13 -24 55 -28 46 -4 -3 9 -6 18 -6 20 0 2 -11 4 -25 4
-23 0 -24 -2 -15 -20z"/>
<path d="M11910 5870 c0 -5 5 -10 10 -10 6 0 10 5 10 10 0 6 -4 10 -10 10 -5
0 -10 -4 -10 -10z"/>
<path d="M11760 5742 c0 -14 11 -21 26 -15 8 3 11 9 8 14 -7 11 -34 12 -34 1z"/>
<path d="M11806 5682 c-2 -4 -1 -14 5 -22 7 -12 9 -10 9 8 0 23 -5 28 -14 14z"/>
<path d="M12250 5165 c7 -8 19 -15 27 -15 12 0 12 2 -1 15 -8 8 -20 15 -27 15
-9 0 -8 -4 1 -15z"/>
<path d="M6790 5150 c0 -5 5 -10 10 -10 6 0 10 5 10 10 0 6 -4 10 -10 10 -5 0
-10 -4 -10 -10z"/>
<path d="M6877 5096 c-3 -8 -3 -17 0 -20 9 -9 34 15 27 25 -8 13 -21 11 -27
-5z"/>
<path d="M6855 5050 c-3 -5 3 -10 14 -10 12 0 21 5 21 10 0 6 -6 10 -14 10 -8
0 -18 -4 -21 -10z"/>
<path d="M12828 5023 c6 -2 18 -2 25 0 6 3 1 5 -13 5 -14 0 -19 -2 -12 -5z"/>
<path d="M12905 5014 c9 -9 18 -14 21 -11 9 9 -6 27 -22 27 -13 0 -13 -2 1
-16z"/>
<path d="M9951 4544 c0 -11 3 -14 6 -6 3 7 2 16 -1 19 -3 4 -6 -2 -5 -13z"/>
<path d="M9412 4190 c0 -14 2 -19 5 -12 2 6 2 18 0 25 -3 6 -5 1 -5 -13z"/>
<path d="M8442 7873 c-70 -14 -95 -201 -38 -286 25 -37 65 -46 101 -23 28 18
55 98 55 162 0 73 -49 159 -87 153 -4 -1 -18 -4 -31 -6z"/>
<path d="M8325 7059 c-4 -12 -2 -26 4 -32 8 -8 11 -2 11 21 0 37 -6 41 -15 11z"/>
<path d="M12333 5725 c-3 -9 -3 -18 0 -22 10 -10 37 6 37 22 0 20 -29 20 -37
0z"/>
<path d="M12435 5709 c9 -13 47 -28 58 -22 5 3 0 11 -10 19 -21 16 -57 19 -48
3z"/>
<path d="M12546 5685 c-5 -15 14 -25 50 -25 35 0 29 15 -10 27 -27 8 -36 8
-40 -2z"/>
<path d="M8186 3912 c-10 -26 -23 -60 -31 -77 -7 -16 -21 -55 -30 -85 -9 -30
-24 -70 -32 -87 -27 -58 -18 -63 116 -63 70 0 122 4 126 10 3 6 1 27 -6 48
-16 51 -49 143 -60 167 -4 11 -16 43 -25 72 -21 69 -38 73 -58 15z"/>
<path d="M10770 3936 c0 -203 2 -235 16 -247 11 -9 45 -13 99 -14 79 0 85 2
115 30 51 48 70 103 70 205 0 99 -19 157 -67 201 -48 45 -86 59 -163 59 l-70
0 0 -234z"/>
<path d="M9861 3931 c-6 -11 -11 -25 -11 -30 0 -6 -9 -30 -19 -54 -42 -93 -81
-201 -81 -223 0 -24 0 -24 118 -24 73 0 122 4 129 11 8 8 0 41 -29 123 -22 61
-48 133 -58 161 -21 56 -34 65 -49 36z"/>
<path d="M13953 3903 c-12 -32 -33 -89 -47 -128 -48 -124 -57 -155 -51 -165 4
-6 59 -10 126 -10 98 0 121 3 125 15 4 9 -10 61 -31 118 -20 56 -46 130 -57
165 -11 34 -26 62 -33 62 -6 0 -21 -26 -32 -57z"/>
<path d="M9900 2821 c0 -34 10 -44 30 -31 12 7 12 13 0 34 -18 34 -30 33 -30
-3z"/>
<path d="M10640 2830 c0 -11 5 -20 10 -20 6 0 10 9 10 20 0 11 -4 20 -10 20
-5 0 -10 -9 -10 -20z"/>
<path d="M10687 2773 c-4 -3 -7 -22 -7 -40 0 -47 24 -38 28 10 3 34 -5 46 -21
30z"/>
<path d="M10783 2492 c-6 -4 -13 -16 -15 -27 -2 -14 3 -21 20 -23 16 -3 22 2
22 15 0 26 -14 43 -27 35z"/>
<path d="M13716 2717 c-23 -60 -14 -84 30 -79 39 5 43 19 19 75 -21 51 -30 52
-49 4z"/>
<path d="M9515 2609 c-10 -15 3 -25 16 -12 7 7 7 13 1 17 -6 3 -14 1 -17 -5z"/>
<path d="M14505 9407 c-8 -39 -1 -58 15 -41 5 5 5 24 1 44 l-8 35 -8 -38z"/>
<path d="M14341 9328 c-29 -10 -58 -109 -43 -143 12 -25 14 -26 94 -23 l83 3
2 88 3 88 -60 -3 c-33 -2 -69 -6 -79 -10z"/>
<path d="M15000 8572 c0 -17 9 -37 21 -48 l22 -19 -7 40 c-9 46 -13 55 -27 55
-5 0 -9 -13 -9 -28z"/>
<path d="M15045 8460 c3 -5 8 -10 11 -10 2 0 4 5 4 10 0 6 -5 10 -11 10 -5 0
-7 -4 -4 -10z"/>
<path d="M5154 3943 c-4 -10 -19 -53 -35 -95 -16 -43 -36 -99 -45 -125 -8 -27
-20 -58 -26 -70 -23 -47 -8 -53 122 -53 102 0 122 2 127 16 3 9 1 25 -5 35 -7
10 -12 24 -12 31 -1 26 -98 272 -109 276 -6 2 -14 -5 -17 -15z"/>
<path d="M7046 3321 c-10 -15 30 -56 84 -85 50 -27 57 -28 147 -24 107 6 134
19 113 58 -23 43 -83 60 -217 60 -67 0 -124 -4 -127 -9z"/>
<path d="M6789 3280 c-91 -27 -148 -64 -229 -148 -139 -143 -306 -341 -510
-607 -63 -82 -258 -372 -283 -422 -8 -15 -18 -73 -22 -128 -4 -55 -13 -118
-20 -140 -66 -211 -66 -220 -8 -231 45 -9 123 -40 262 -105 171 -81 205 -99
223 -120 33 -39 60 -26 145 70 151 173 147 164 141 254 -6 75 -23 127 -43 127
-11 0 -102 29 -137 45 -14 5 -18 2 -18 -15 0 -16 -4 -20 -16 -16 -9 3 -46 6
-82 7 -47 0 -61 3 -47 9 14 6 -2 9 -50 9 -69 1 -262 27 -300 41 -14 5 0 12 55
25 123 29 707 41 829 16 64 -13 59 -17 155 99 38 47 73 87 76 90 23 18 193
260 257 365 171 280 229 406 253 553 14 85 4 111 -34 90 -11 -7 -74 -14 -140
-16 -121 -5 -218 12 -257 45 -8 7 -20 13 -25 13 -5 0 -32 23 -59 50 -49 50
-65 56 -116 40z"/>
<path d="M6285 3102 c-6 -4 -32 -18 -60 -29 -27 -12 -85 -38 -128 -57 -44 -20
-81 -36 -85 -36 -12 0 -325 -161 -377 -194 -66 -43 -68 -57 -22 -129 41 -63
93 -199 111 -287 8 -40 18 -65 26 -65 7 0 36 36 64 81 98 154 379 538 442 604
19 19 34 37 34 41 0 3 11 18 25 33 14 15 25 31 25 37 0 11 -42 12 -55 1z"/>
<path d="M10430 2249 c0 -5 5 -7 10 -4 6 3 10 8 10 11 0 2 -4 4 -10 4 -5 0
-10 -5 -10 -11z"/>
<path d="M7870 2126 c0 -9 5 -16 10 -16 6 0 10 4 10 9 0 6 -4 13 -10 16 -5 3
-10 -1 -10 -9z"/>
<path d="M10673 1971 c-11 -17 -9 -21 7 -26 26 -8 40 1 40 26 0 25 -31 25 -47
0z"/>
<path d="M6570 1860 c57 -49 82 -51 98 -7 17 47 15 51 -12 33 -22 -14 -28 -14
-60 -1 -65 27 -75 18 -26 -25z"/>
<path d="M11077 1894 c-4 -4 -49 -9 -100 -10 -126 -4 -240 -15 -252 -24 -5 -4
-24 -11 -42 -14 -17 -4 -37 -14 -44 -22 -6 -8 -23 -14 -38 -14 -25 -1 -25 -1
8 -15 18 -8 52 -15 75 -15 55 0 110 -37 126 -85 7 -21 18 -35 28 -35 19 0 128
64 231 134 40 28 86 59 102 69 35 22 39 42 7 32 -30 -9 -38 -9 -68 -1 -14 4
-29 4 -33 0z"/>
<path d="M11323 1857 c-93 -46 -238 -132 -308 -181 -27 -19 -87 -61 -132 -91
-46 -31 -100 -75 -122 -98 -22 -23 -80 -85 -130 -139 -119 -126 -122 -147 -12
-83 32 19 64 35 69 35 6 0 45 16 86 35 42 19 118 52 168 73 226 95 598 280
723 360 44 29 101 64 127 79 26 16 48 33 48 38 0 6 -80 10 -219 11 l-219 1
-79 -40z"/>
<path d="M6885 1825 c-52 -51 -59 -80 -20 -72 23 4 45 -14 45 -37 0 -12 -39
-5 -54 10 -20 19 -49 11 -74 -21 -10 -13 -57 -65 -103 -116 -180 -197 -199
-219 -199 -229 0 -12 65 13 90 34 8 7 38 26 65 41 28 16 123 73 213 128 123
74 162 103 162 119 0 11 14 50 30 88 17 38 30 71 30 74 0 3 -13 6 -29 6 -17 0
-33 5 -36 10 -5 8 -11 7 -21 -1 -11 -9 -18 -9 -26 -1 -18 18 -25 15 -73 -33z"/>
<path d="M10177 1849 c-10 -6 -30 -8 -43 -5 -14 4 -40 2 -57 -3 -53 -17 -191
-29 -204 -19 -9 7 -18 0 -33 -24 -26 -43 -25 -48 5 -48 14 0 25 5 25 10 0 6 5
10 12 10 6 0 3 -9 -8 -21 -11 -13 -26 -18 -39 -15 -27 7 -66 -42 -111 -140
-39 -86 -43 -120 -15 -129 39 -12 175 75 296 190 33 31 80 73 105 93 49 39
110 99 110 107 0 8 -24 5 -43 -6z"/>
<path d="M7274 1784 c-73 -54 -73 -55 -29 -53 38 2 85 -16 85 -33 0 -5 25 -8
55 -8 57 0 63 6 49 44 -5 12 -10 14 -19 6 -28 -23 -125 11 -104 36 6 7 17 10
26 7 11 -4 14 -1 12 12 -6 30 -24 28 -75 -11z"/>
<path d="M10385 1781 c-22 -10 -49 -26 -60 -36 -19 -16 -17 -16 38 -11 32 4
65 10 75 15 32 16 88 31 118 31 22 0 26 3 14 10 -26 17 -141 11 -185 -9z"/>
<path d="M4640 1757 c0 -3 12 -12 26 -22 15 -9 23 -12 20 -6 -7 11 -46 35 -46
28z"/>
<path d="M7636 1742 c-3 -6 -1 -14 5 -17 15 -10 25 3 12 16 -7 7 -13 7 -17 1z"/>
<path d="M7708 1743 c7 -3 16 -2 19 1 4 3 -2 6 -13 5 -11 0 -14 -3 -6 -6z"/>
<path d="M9160 1714 c-22 -20 -51 -55 -64 -77 -64 -110 -115 -227 -98 -227 14
1 222 308 222 328 0 21 -18 14 -60 -24z"/>
<path d="M7939 1697 c-52 -53 -111 -155 -167 -294 -47 -115 -47 -113 -28 -113
30 0 366 383 366 418 0 5 -21 12 -47 15 -27 3 -55 8 -64 12 -11 4 -31 -8 -60
-38z"/>
<path d="M9596 1733 c-4 -4 -46 -6 -95 -4 -86 2 -88 2 -132 -31 -26 -20 -116
-129 -224 -273 -171 -227 -182 -240 -216 -243 -26 -2 -40 3 -55 19 -16 18 -19
37 -19 138 -1 67 -5 116 -10 116 -6 0 -23 -4 -40 -7 -16 -4 -52 -10 -78 -13
l-48 -6 -53 -107 c-28 -59 -59 -108 -67 -109 -15 -3 -32 30 -69 129 l-21 57
-35 -32 c-20 -18 -45 -37 -57 -44 -62 -35 -117 11 -117 97 0 34 -4 42 -25 50
-14 5 -25 13 -25 16 0 4 18 23 39 43 25 23 43 51 51 79 6 24 14 50 17 59 9 22
-76 -37 -130 -90 -84 -85 -414 -385 -435 -396 -57 -31 -70 -31 -102 -5 -46 39
-42 98 19 271 27 76 56 155 65 176 15 35 15 37 -1 37 -30 -1 -180 -47 -206
-65 -14 -9 -27 -22 -30 -28 -15 -39 -206 -277 -289 -360 -54 -54 -98 -101 -98
-106 0 -11 36 -21 78 -21 31 0 182 -23 357 -55 44 -8 141 -22 215 -30 74 -8
173 -19 220 -25 47 -5 193 -14 325 -21 337 -17 647 -2 1095 52 91 11 202 21
247 23 45 1 88 7 95 13 7 5 47 37 88 70 123 100 250 176 526 313 239 119 334
178 334 209 0 19 -31 33 -57 26 -16 -4 -66 -8 -113 -10 -57 -2 -139 -16 -252
-44 -93 -22 -192 -41 -222 -41 -52 0 -56 -2 -142 -74 -115 -97 -161 -120 -222
-113 -87 10 -115 75 -89 205 29 145 30 182 3 155z"/>
<path d="M5518 1659 c-27 -55 -160 -328 -166 -341 -3 -7 56 -48 69 -48 5 0 39
102 75 225 9 33 26 88 36 122 27 87 19 109 -14 42z"/>
<path d="M8911 1694 c-9 -13 -21 -19 -32 -17 -13 4 -22 -3 -29 -21 -5 -14 -14
-26 -20 -26 -19 0 -10 -32 19 -65 l29 -33 11 24 c6 14 11 32 11 40 0 8 7 29
16 45 8 17 14 40 12 52 l-3 22 -14 -21z"/>
<path d="M4740 1687 c0 -3 12 -12 26 -22 15 -9 23 -12 20 -6 -7 11 -46 35 -46
28z"/>
<path d="M5347 1617 c-16 -31 -27 -62 -25 -68 6 -19 59 82 56 105 -2 14 -11 4
-31 -37z"/>
<path d="M6985 1589 c-34 -18 -261 -165 -407 -262 -26 -18 -50 -40 -53 -49 -4
-10 -22 -25 -41 -34 -19 -9 -34 -23 -34 -30 0 -11 10 -8 37 11 40 26 77 31
127 16 17 -6 76 -22 131 -37 113 -30 209 -60 242 -76 32 -16 36 -7 25 49 -17
79 1 152 74 312 l38 84 -23 18 c-30 25 -67 24 -116 -2z"/>
<path d="M7303 1561 c-36 -22 -73 -74 -132 -185 -53 -99 -49 -136 8 -73 46 51
157 200 176 238 13 24 13 28 -1 33 -20 8 -14 9 -51 -13z"/>
<path d="M4930 1556 c0 -2 7 -7 16 -10 8 -3 12 -2 9 4 -6 10 -25 14 -25 6z"/>
<path d="M5000 1516 c0 -3 9 -10 20 -16 11 -6 20 -8 20 -6 0 3 -9 10 -20 16
-11 6 -20 8 -20 6z"/>
<path d="M5050 1484 c0 -2 47 -32 105 -66 80 -47 104 -65 99 -77 -13 -32 -54
-155 -54 -160 1 -3 14 22 29 56 28 59 44 111 46 143 1 8 7 35 14 59 12 41 8
74 -4 35 -4 -10 -11 -27 -16 -36 -5 -10 -9 -25 -9 -33 0 -22 -6 -20 -113 34
-53 26 -97 47 -97 45z"/>
<path d="M5623 1433 c-7 -15 -13 -38 -12 -52 1 -24 2 -24 15 8 19 43 16 85 -3
44z"/>
<path d="M5576 1295 c-11 -27 -28 -56 -38 -63 -17 -12 -9 -18 83 -63 56 -27
104 -48 106 -45 3 2 -19 16 -48 30 -28 15 -64 37 -79 50 -27 22 -27 24 -13 57
7 18 13 45 11 59 -3 21 -6 17 -22 -25z"/>
<path d="M6179 1328 c-19 -15 -32 -48 -20 -48 13 0 43 38 39 50 -2 7 -8 7 -19
-2z"/>
<path d="M6066 1195 c-42 -41 -76 -77 -76 -80 0 -13 31 -3 37 13 9 22 29 43
36 36 3 -3 8 3 11 14 4 11 18 27 31 36 22 14 52 56 41 56 -3 0 -39 -34 -80
-75z"/>
<path d="M10234 1247 c-76 -42 -142 -88 -148 -103 -5 -12 -1 -12 25 2 83 42
197 125 172 124 -4 -1 -26 -11 -49 -23z"/>
<path d="M5303 1225 c-3 -9 -3 -18 -1 -21 3 -3 8 4 11 16 6 23 -1 27 -10 5z"/>
<path d="M11540 1200 c-9 -6 -10 -10 -3 -10 6 0 15 5 18 10 8 12 4 12 -15 0z"/>
<path d="M6420 1192 c-18 -6 -84 -54 -88 -64 -2 -5 -9 -8 -15 -8 -7 0 -25 -11
-40 -24 -16 -14 -46 -39 -68 -57 -21 -17 -39 -37 -39 -44 0 -20 37 -6 55 21
13 20 144 124 202 160 20 13 16 24 -7 16z"/>
<path d="M5282 1169 c-5 -13 -17 -44 -25 -69 -9 -25 -30 -83 -47 -130 -57
-152 -180 -511 -180 -523 1 -7 47 119 104 278 57 160 117 328 135 374 17 47
29 87 26 89 -2 3 -9 -6 -13 -19z"/>
<path d="M5186 1155 c-9 -26 -7 -32 5 -12 6 10 9 21 6 23 -2 3 -7 -2 -11 -11z"/>
<path d="M10427 1143 c-4 -3 -7 -11 -7 -17 0 -6 5 -5 12 2 6 6 9 14 7 17 -3 3
-9 2 -12 -2z"/>
<path d="M5820 1079 c129 -63 129 -63 136 -34 3 14 10 25 15 25 5 0 9 5 9 12
0 6 -8 3 -20 -7 -15 -14 -29 -16 -62 -11 -23 4 -47 11 -53 15 -9 8 -43 21 -90
35 -11 3 18 -12 65 -35z"/>
<path d="M10360 1101 c-32 -24 -85 -56 -130 -78 -19 -10 -36 -21 -38 -25 -2
-5 -10 -8 -18 -8 -8 0 -14 -4 -14 -10 0 -5 -6 -10 -14 -10 -20 0 -86 -40 -86
-51 0 -5 7 -9 15 -9 8 0 15 4 15 10 0 5 15 16 33 25 17 8 39 19 47 24 8 5 29
15 45 22 17 7 46 26 66 41 20 15 43 28 50 28 8 0 30 14 49 30 38 32 21 42 -20
11z"/>
<path d="M11265 1070 c-3 -6 1 -7 9 -4 18 7 21 14 7 14 -6 0 -13 -4 -16 -10z"/>
<path d="M5871 728 c-142 -139 -281 -271 -309 -293 -28 -22 -51 -44 -52 -49 0
-6 15 4 33 20 17 16 81 75 142 129 60 55 183 171 271 258 l161 158 83 -31 c46
-16 85 -28 87 -26 2 2 -26 18 -62 35 -36 18 -65 36 -65 42 0 32 -60 -19 -289
-243z"/>
<path d="M5282 915 c-17 -37 -14 -45 4 -12 9 16 14 31 11 33 -2 2 -9 -7 -15
-21z"/>
<path d="M10000 900 c-12 -8 -11 -10 8 -10 12 0 22 5 22 10 0 13 -11 13 -30 0z"/>
<path d="M6315 880 c27 -12 43 -12 25 0 -8 5 -22 9 -30 9 -10 0 -8 -3 5 -9z"/>
<path d="M10786 881 c-4 -5 3 -7 14 -4 23 6 26 13 6 13 -8 0 -17 -4 -20 -9z"/>
<path d="M9930 870 c0 -5 -10 -11 -22 -11 -17 -1 -18 -3 -6 -6 9 -2 29 3 45
11 26 14 27 15 6 16 -13 0 -23 -4 -23 -10z"/>
<path d="M6430 840 c8 -5 22 -9 30 -9 10 0 8 3 -5 9 -27 12 -43 12 -25 0z"/>
<path d="M5332 785 c-30 -62 -27 -71 4 -12 14 27 24 51 22 53 -3 2 -14 -17
-26 -41z"/>
<path d="M6585 790 c11 -5 27 -9 35 -9 9 0 8 4 -5 9 -11 5 -27 9 -35 9 -9 0
-8 -4 5 -9z"/>
<path d="M10458 773 c7 -3 16 -2 19 1 4 3 -2 6 -13 5 -11 0 -14 -3 -6 -6z"/>
<path d="M5202 745 c-17 -37 -14 -45 4 -12 9 16 14 31 11 33 -2 2 -9 -7 -15
-21z"/>
<path d="M6678 763 c7 -3 16 -2 19 1 4 3 -2 6 -13 5 -11 0 -14 -3 -6 -6z"/>
<path d="M5579 723 c-13 -16 -12 -17 4 -4 9 7 17 15 17 17 0 8 -8 3 -21 -13z"/>
<path d="M6795 730 c11 -5 27 -9 35 -9 9 0 8 4 -5 9 -11 5 -27 9 -35 9 -9 0
-8 -4 5 -9z"/>
<path d="M5295 709 c-4 -6 -5 -12 -2 -15 2 -3 7 2 10 11 7 17 1 20 -8 4z"/>
<path d="M6858 713 c7 -3 16 -2 19 1 4 3 -2 6 -13 5 -11 0 -14 -3 -6 -6z"/>
<path d="M6910 700 c34 -11 60 -11 35 0 -11 5 -29 8 -40 8 -16 0 -15 -2 5 -8z"/>
<path d="M10198 703 c6 -2 18 -2 25 0 6 3 1 5 -13 5 -14 0 -19 -2 -12 -5z"/>
<path d="M5514 668 l-19 -23 23 19 c12 11 22 21 22 23 0 8 -8 2 -26 -19z"/>
<path d="M6978 683 c7 -3 16 -2 19 1 4 3 -2 6 -13 5 -11 0 -14 -3 -6 -6z"/>
<path d="M10090 680 c-13 -9 -13 -10 0 -9 8 0 24 4 35 9 l20 9 -20 0 c-11 0
-27 -4 -35 -9z"/>
<path d="M5267 651 c-9 -16 -17 -35 -17 -43 1 -7 10 4 21 25 24 46 21 59 -4
18z"/>
<path d="M7018 673 c6 -2 18 -2 25 0 6 3 1 5 -13 5 -14 0 -19 -2 -12 -5z"/>
<path d="M7068 663 c7 -3 16 -2 19 1 4 3 -2 6 -13 5 -11 0 -14 -3 -6 -6z"/>
<path d="M10038 663 c7 -3 16 -2 19 1 4 3 -2 6 -13 5 -11 0 -14 -3 -6 -6z"/>
<path d="M7125 650 c11 -5 29 -8 40 -8 16 0 15 2 -5 8 -34 11 -60 11 -35 0z"/>
<path d="M9938 643 c6 -2 18 -2 25 0 6 3 1 5 -13 5 -14 0 -19 -2 -12 -5z"/>
<path d="M7208 633 c7 -3 16 -2 19 1 4 3 -2 6 -13 5 -11 0 -14 -3 -6 -6z"/>
<path d="M5348 518 c-63 -62 -129 -133 -148 -158 l-32 -45 42 45 c23 25 92 96
153 158 62 61 109 112 105 112 -3 0 -58 -51 -120 -112z"/>
<path d="M7258 623 c7 -3 16 -2 19 1 4 3 -2 6 -13 5 -11 0 -14 -3 -6 -6z"/>
<path d="M9838 623 c6 -2 18 -2 25 0 6 3 1 5 -13 5 -14 0 -19 -2 -12 -5z"/>
<path d="M7308 613 c7 -3 16 -2 19 1 4 3 -2 6 -13 5 -11 0 -14 -3 -6 -6z"/>
<path d="M9750 609 c-11 -7 -4 -8 25 -3 50 8 58 14 19 14 -16 0 -36 -5 -44
-11z"/>
<path d="M7363 603 c9 -2 23 -2 30 0 6 3 -1 5 -18 5 -16 0 -22 -2 -12 -5z"/>
<path d="M7418 593 c7 -3 16 -2 19 1 4 3 -2 6 -13 5 -11 0 -14 -3 -6 -6z"/>
<path d="M5235 579 c-4 -6 -5 -12 -2 -15 2 -3 7 2 10 11 7 17 1 20 -8 4z"/>
<path d="M7478 583 c6 -2 18 -2 25 0 6 3 1 5 -13 5 -14 0 -19 -2 -12 -5z"/>
<path d="M9608 583 c6 -2 18 -2 25 0 6 3 1 5 -13 5 -14 0 -19 -2 -12 -5z"/>
<path d="M5090 520 c-17 -33 -28 -60 -25 -60 2 0 18 27 35 60 17 33 28 60 25
60 -2 0 -18 -27 -35 -60z"/>
<path d="M7543 573 c9 -2 23 -2 30 0 6 3 -1 5 -18 5 -16 0 -22 -2 -12 -5z"/>
<path d="M9568 573 c7 -3 16 -2 19 1 4 3 -2 6 -13 5 -11 0 -14 -3 -6 -6z"/>
<path d="M7635 559 c22 -4 54 -8 70 -7 22 0 19 3 -15 9 -60 10 -108 9 -55 -2z"/>
<path d="M9483 563 c9 -2 23 -2 30 0 6 3 -1 5 -18 5 -16 0 -22 -2 -12 -5z"/>
<path d="M9413 553 c9 -2 23 -2 30 0 6 3 -1 5 -18 5 -16 0 -22 -2 -12 -5z"/>
<path d="M5165 440 c-30 -60 -53 -110 -50 -110 3 0 30 50 60 110 30 61 53 110
50 110 -3 0 -30 -49 -60 -110z"/>
<path d="M7795 540 c52 -9 141 -13 134 -6 -2 2 -44 6 -94 9 -66 4 -77 3 -40
-3z"/>
<path d="M9313 543 c9 -2 25 -2 35 0 9 3 1 5 -18 5 -19 0 -27 -2 -17 -5z"/>
<path d="M9213 533 c15 -2 39 -2 55 0 15 2 2 4 -28 4 -30 0 -43 -2 -27 -4z"/>
<path d="M7953 523 c9 -2 25 -2 35 0 9 3 1 5 -18 5 -19 0 -27 -2 -17 -5z"/>
<path d="M9133 523 c9 -2 25 -2 35 0 9 3 1 5 -18 5 -19 0 -27 -2 -17 -5z"/>
<path d="M8093 513 c20 -2 54 -2 75 0 20 2 3 4 -38 4 -41 0 -58 -2 -37 -4z"/>
<path d="M8893 512 c-7 -4 20 -6 60 -4 102 4 115 10 27 11 -41 0 -80 -3 -87
-7z"/>
<path d="M8308 503 c46 -2 118 -2 160 0 42 1 5 3 -83 3 -88 0 -123 -2 -77 -3z"/>
<path d="M8743 503 c26 -2 67 -2 90 0 23 2 2 3 -48 3 -49 0 -68 -1 -42 -3z"/>
<path d="M5046 433 c-6 -14 -5 -15 5 -6 7 7 10 15 7 18 -3 3 -9 -2 -12 -12z"/>
<path d="M5456 344 c-15 -14 -27 -27 -25 -29 2 -2 19 10 37 26 18 16 29 29 25
29 -5 0 -21 -12 -37 -26z"/>
<path d="M5140 270 c-24 -47 -25 -62 -5 -100 12 -23 22 -30 46 -30 17 0 40 5
52 12 24 12 187 146 187 153 0 3 -43 -29 -95 -69 -52 -41 -103 -77 -115 -81
-31 -10 -57 3 -70 36 -12 27 -10 36 8 75 27 55 20 59 -8 4z"/>
<path d="M5085 289 c-4 -6 -5 -12 -2 -15 2 -3 7 2 10 11 7 17 1 20 -8 4z"/>
<path d="M5015 160 c-9 -16 -13 -30 -11 -30 3 0 12 14 21 30 9 17 13 30 11 30
-3 0 -12 -13 -21 -30z"/>
<path d="M4938 50 c-21 -22 -34 -40 -30 -40 8 0 34 26 61 63 22 29 8 18 -31
-23z"/>
</g>
</svg>
